<svg width="150" height="44" viewBox="0 0 150 44" fill="none" xmlns="http://www.w3.org/2000/svg">
<path d="M24.0159 18.3187C23.3586 16.8287 22.4821 15.514 21.3426 14.3307C20.1594 13.1912 18.8446 12.3148 17.3546 11.6574C15.8207 11 14.1992 10.6932 12.49 10.6932C10.8247 10.6932 9.15935 11 7.62549 11.6574C6.13545 12.3148 4.82072 13.1912 3.63746 14.3307C2.49802 15.4701 1.6215 16.8287 0.964134 18.3187C0.350588 19.8526 0 21.4741 0 23.1833V41.8088L6.5737 44V34.1833C6.92429 34.3586 7.27489 34.5339 7.62549 34.6653C9.15935 35.3227 10.8247 35.6733 12.49 35.6733C14.1554 35.6733 15.8207 35.3227 17.3546 34.6653C18.8446 34.0518 20.1594 33.1753 21.3426 31.992C22.4821 30.8526 23.3586 29.5379 24.0159 28.0478C24.6733 26.514 24.9801 24.8486 24.9801 23.1833C24.9801 21.4741 24.6733 19.8526 24.0159 18.3187ZM12.49 29.0996C9.247 29.0996 6.5737 26.4263 6.5737 23.1833C6.5737 19.9402 9.247 17.2669 12.49 17.2669C15.7331 17.2669 18.4064 19.9402 18.4064 23.1833C18.4064 26.4263 15.7331 29.0996 12.49 29.0996Z" fill="#FBFBFB"/>
<path d="M33.6259 35.3227V24.5418C33.6259 20.3347 37.0442 16.8725 41.2952 16.8725V10.2988C39.3669 10.2988 37.4824 10.6932 35.7295 11.4382C34.0641 12.1394 32.5302 13.1912 31.2155 14.506C29.9008 15.7769 28.8928 17.3107 28.1478 19.0199C27.4028 20.7729 27.0522 22.6135 27.0522 24.5418V35.3227H33.6259Z" fill="#FBFBFB"/>
<path d="M44.6923 44H51.6604L64.9831 10.9124H57.9712L52.4492 24.761L46.5768 10.9124H39.3457L49.1186 33L44.6923 44Z" fill="#FBFBFB"/>
<path d="M79.5938 17.0478V10.9123H72.6257V3.06772L66.052 5.25895V22.2629C66.052 24.1036 66.4026 25.8566 67.1038 27.5219C67.7612 29.1434 68.7691 30.5896 69.9962 31.8167C71.2233 33.0876 72.6695 34.0518 74.291 34.753C75.9564 35.4542 77.7532 35.8048 79.5938 35.8048V29.2311C75.7373 29.2311 72.6257 26.1195 72.6257 22.2629V17.0478H79.5938Z" fill="#FBFBFB"/>
<path d="M90.7643 35.498C92.4735 35.498 94.1388 35.1474 95.7165 34.4462C97.2504 33.7888 98.609 32.8247 99.7484 31.6414L95.103 27.259C93.9635 28.4861 92.4297 29.1434 90.7643 29.1434C88.6169 29.1434 86.7325 28.004 85.6807 26.3386H103.079V23.1394C103.079 19.8526 101.808 16.741 99.4854 14.4183C97.1627 12.0956 94.0512 10.7809 90.7643 10.7809C87.4337 10.7809 84.3659 12.0956 81.9994 14.4183C79.6767 16.741 78.4058 19.8526 78.4058 23.1394C78.4058 26.4263 79.6767 29.5379 81.9994 31.8606C84.3659 34.1833 87.4337 35.498 90.7643 35.498ZM85.6807 19.9841C86.7325 18.2749 88.6169 17.1355 90.7643 17.1355C92.8679 17.1355 94.7524 18.2749 95.848 19.9841H85.6807Z" fill="#FBFBFB"/>
<path d="M115.777 35.6733C119.852 35.6733 123.709 33.6574 126.075 30.239L120.641 26.514C119.546 28.1355 117.705 29.0996 115.777 29.0996C112.49 29.0996 109.86 26.4263 109.86 23.1833C109.86 19.8964 112.49 17.2669 115.777 17.2669C117.661 17.2669 119.502 18.1873 120.597 19.7649L125.988 15.996C124.848 14.3745 123.314 13.0598 121.605 12.1395C119.808 11.1753 117.793 10.6932 115.777 10.6932C114.067 10.6932 112.446 11 110.912 11.6574C109.422 12.3148 108.063 13.1912 106.924 14.3307C105.785 15.514 104.864 16.8287 104.251 18.3187C103.593 19.8526 103.287 21.5179 103.287 23.1833C103.287 24.8486 103.593 26.514 104.251 28.0478C104.864 29.5379 105.785 30.8526 106.924 32.0359C108.063 33.1753 109.422 34.0518 110.912 34.7092C112.446 35.3227 114.067 35.6733 115.777 35.6733Z" fill="#FBFBFB"/>
<path d="M146.387 14.3307C144.284 12.2271 141.523 11.0876 138.543 11.0876C136.965 11.0876 135.431 11.3944 134.029 12.0518V0L127.455 2.19124V21.2112C127.411 21.5618 127.411 21.8685 127.411 22.2191H127.455V35.3227H134.029V21.5618C134.336 19.3705 136.22 17.6614 138.543 17.6614C141.041 17.6614 143.101 19.6773 143.101 22.2191V35.3227H149.674V22.2191C149.674 19.239 148.491 16.4343 146.387 14.3307Z" fill="#FBFBFB"/>
</svg>
