<svg width="535" height="157" viewBox="0 0 535 157" fill="none" xmlns="http://www.w3.org/2000/svg">
<path d="M86.4067 65.3083C84.0631 59.9962 80.9383 55.309 76.8761 51.0905C72.6576 47.0282 67.9704 43.9034 62.6583 41.5598C57.1899 39.2162 51.409 38.1226 45.3156 38.1226C39.3785 38.1226 33.4414 39.2162 27.973 41.5598C22.6608 43.9034 17.9737 47.0282 13.7552 51.0905C9.69294 55.1527 6.56808 59.9962 4.22448 65.3083C2.03712 70.7767 0.787231 76.5576 0.787231 82.651V149.053L24.2232 156.865V121.867C25.4731 122.492 26.723 123.117 27.973 123.586C33.4414 125.929 39.3785 127.179 45.3156 127.179C51.2527 127.179 57.1899 125.929 62.6583 123.586C67.9704 121.398 72.6576 118.274 76.8761 114.055C80.9383 109.993 84.0631 105.306 86.4067 99.9936C88.7503 94.5252 89.844 88.5881 89.844 82.651C89.844 76.5576 88.7503 70.7767 86.4067 65.3083ZM45.3156 103.743C33.7538 103.743 24.2232 94.2127 24.2232 82.651C24.2232 71.0892 33.7538 61.5586 45.3156 61.5586C56.8774 61.5586 66.408 71.0892 66.408 82.651C66.408 94.2127 56.8774 103.743 45.3156 103.743V103.743Z" fill="black"/>
<path d="M120.667 125.929V87.4944C120.667 72.4954 132.854 60.1524 148.009 60.1524V36.7164C141.135 36.7164 134.416 38.1226 128.167 40.7786C122.23 43.2785 116.761 47.0282 112.074 51.7154C107.387 56.2464 103.793 61.7148 101.137 67.8082C98.4812 74.0578 97.2312 80.6198 97.2312 87.4944V125.929H120.667Z" fill="black"/>
<path d="M160.12 156.865H184.962L232.459 38.9038H207.461L187.775 88.2756L166.839 38.9038H141.059L175.9 117.649L160.12 156.865Z" fill="black"/>
<path d="M284.548 60.7774V38.9038H259.706V10.9368L236.27 18.7488V79.3699C236.27 85.932 237.52 92.1816 240.02 98.1187C242.364 103.9 245.957 109.056 250.332 113.43C254.707 117.961 259.862 121.398 265.643 123.898C271.58 126.398 277.986 127.648 284.548 127.648V104.212C270.799 104.212 259.706 93.119 259.706 79.3699V60.7774H284.548Z" fill="black"/>
<path d="M324.372 126.554C330.466 126.554 336.403 125.305 342.028 122.805C347.496 120.461 352.339 117.024 356.402 112.805L339.84 97.1813C335.778 101.556 330.31 103.9 324.372 103.9C316.717 103.9 309.998 99.8374 306.249 93.9003H368.276V82.4947C368.276 70.7767 363.745 59.6837 355.464 51.403C347.184 43.1223 336.09 38.4351 324.372 38.4351C312.498 38.4351 301.561 43.1223 293.124 51.403C284.844 59.6837 280.313 70.7767 280.313 82.4947C280.313 94.2127 284.844 105.306 293.124 113.587C301.561 121.867 312.498 126.554 324.372 126.554V126.554ZM306.249 71.2455C309.998 65.1521 316.717 61.0899 324.372 61.0899C331.872 61.0899 338.59 65.1521 342.496 71.2455H306.249Z" fill="black"/>
<path d="M413.544 127.179C428.074 127.179 441.823 119.992 450.26 107.806L430.887 94.5252C426.981 100.306 420.419 103.743 413.544 103.743C401.826 103.743 392.452 94.2127 392.452 82.651C392.452 70.933 401.826 61.5586 413.544 61.5586C420.262 61.5586 426.824 64.8396 430.73 70.4642L449.948 57.0276C445.886 51.2467 440.417 46.5595 434.324 43.2785C427.918 39.8412 420.731 38.1226 413.544 38.1226C407.451 38.1226 401.67 39.2162 396.201 41.5598C390.889 43.9034 386.046 47.0282 381.984 51.0905C377.921 55.309 374.64 59.9962 372.453 65.3083C370.109 70.7767 369.016 76.7138 369.016 82.651C369.016 88.5881 370.109 94.5252 372.453 99.9936C374.64 105.306 377.921 109.993 381.984 114.211C386.046 118.274 390.889 121.398 396.201 123.742C401.67 125.929 407.451 127.179 413.544 127.179V127.179Z" fill="black"/>
<path d="M522.675 51.0905C515.176 43.591 505.333 39.5287 494.708 39.5287C489.084 39.5287 483.615 40.6224 478.616 42.966V0L455.179 7.81201V75.6202C455.023 76.8701 455.023 77.9638 455.023 79.2137H455.179V125.929H478.616V76.8701C479.709 69.0581 486.427 62.9647 494.708 62.9647C503.614 62.9647 510.957 70.1518 510.957 79.2137V125.929H534.393V79.2137C534.393 68.5894 530.175 58.59 522.675 51.0905V51.0905Z" fill="black"/>
</svg>
