<svg width="564" height="210" viewBox="0 0 564 210" fill="none" xmlns="http://www.w3.org/2000/svg">
<path d="M16.544 188.377C15.84 187.033 14.848 185.977 13.6 185.177C12.352 184.409 10.976 184.025 9.44 184.025C8.192 184.025 7.03999 184.281 5.98399 184.793C4.89599 185.305 3.99999 186.041 3.26399 186.937V178.297C3.26399 177.817 3.104 177.433 2.784 177.113C2.464 176.825 2.07999 176.665 1.63199 176.665C1.11999 176.665 0.735998 176.825 0.447998 177.113C0.127998 177.433 0 177.817 0 178.297V192.889V193.465V200.281C0 200.697 0.127998 201.049 0.447998 201.337C0.735998 201.657 1.088 201.785 1.536 201.785H8.608H8.672H8.79999C10.432 201.785 11.936 201.401 13.28 200.633C14.624 199.865 15.68 198.777 16.48 197.433C17.248 196.089 17.632 194.585 17.632 192.889C17.632 191.257 17.248 189.721 16.544 188.377V188.377ZM13.728 195.961C13.216 196.889 12.544 197.625 11.68 198.137C10.816 198.649 9.85599 198.905 8.79999 198.905C7.71199 198.905 6.752 198.649 5.888 198.137C5.024 197.625 4.35199 196.889 3.87199 195.961C3.35999 195.065 3.136 194.041 3.136 192.889C3.136 191.769 3.35999 190.745 3.87199 189.849C4.35199 188.953 5.024 188.217 5.888 187.705C6.752 187.193 7.71199 186.905 8.79999 186.905C9.85599 186.905 10.816 187.193 11.68 187.705C12.544 188.217 13.216 188.953 13.728 189.849C14.24 190.745 14.496 191.769 14.496 192.889C14.496 194.041 14.24 195.065 13.728 195.961V195.961Z" fill="black"/>
<path d="M38.564 200.025V185.753C38.564 185.273 38.404 184.889 38.116 184.569C37.796 184.281 37.412 184.121 36.932 184.121C36.452 184.121 36.068 184.281 35.748 184.569C35.428 184.889 35.3 185.273 35.3 185.753V194.777C35.3 195.577 35.076 196.249 34.66 196.857C34.244 197.497 33.668 197.977 32.932 198.329C32.196 198.713 31.364 198.873 30.5 198.873C28.932 198.873 27.716 198.457 26.788 197.561C25.86 196.665 25.412 195.353 25.412 193.625V185.753C25.412 185.305 25.252 184.921 24.932 184.601C24.612 184.281 24.228 184.121 23.78 184.121C23.3 184.121 22.916 184.281 22.596 184.601C22.276 184.921 22.148 185.305 22.148 185.753V193.625C22.148 195.385 22.468 196.857 23.14 198.073C23.78 199.289 24.708 200.249 25.892 200.857C27.012 201.497 28.228 201.817 29.572 201.849C29.636 201.849 32.1 201.849 37.06 201.849C37.476 201.849 37.828 201.689 38.116 201.401C38.404 201.113 38.564 200.761 38.564 200.313V200.025Z" fill="black"/>
<path d="M45.0805 184.601C44.7605 184.921 44.6325 185.305 44.6325 185.785V200.025C44.6325 200.505 44.7605 200.889 45.0805 201.209C45.4005 201.529 45.7845 201.657 46.2645 201.657C46.7445 201.657 47.1285 201.529 47.4485 201.209C47.7365 200.889 47.8965 200.505 47.8965 200.025V185.785C47.8965 185.305 47.7365 184.921 47.4485 184.601C47.1285 184.313 46.7445 184.153 46.2645 184.153C45.7845 184.153 45.4005 184.313 45.0805 184.601Z" fill="black"/>
<path d="M53.808 177.113C53.488 177.433 53.36 177.817 53.36 178.265V195.737C53.36 196.889 53.552 197.913 53.968 198.809C54.352 199.705 54.928 200.409 55.664 200.921C56.4 201.433 57.232 201.657 58.16 201.657H58.224C58.864 201.657 59.376 201.529 59.792 201.209C60.176 200.921 60.4 200.537 60.4 200.057C60.4 199.609 60.24 199.225 59.984 198.905C59.728 198.617 59.376 198.457 58.96 198.457H58.16C57.68 198.457 57.296 198.201 57.008 197.689C56.688 197.177 56.56 196.537 56.56 195.737V178.265C56.56 177.817 56.4 177.433 56.112 177.113C55.792 176.825 55.408 176.665 54.96 176.665C54.48 176.665 54.096 176.825 53.808 177.113V177.113Z" fill="black"/>
<path d="M61.7595 192.889C61.7595 194.585 62.1435 196.089 62.9115 197.433C63.6795 198.777 64.7675 199.865 66.1115 200.633C67.4555 201.401 68.9595 201.785 70.5915 201.785H70.7195H70.7835H77.8555C78.3035 201.785 78.6555 201.657 78.9435 201.369C79.2635 201.049 79.3915 200.697 79.3915 200.281V193.465V192.889V178.297C79.3915 177.817 79.2635 177.433 78.9435 177.113C78.6555 176.825 78.2715 176.665 77.7595 176.665C77.3115 176.665 76.9275 176.825 76.6075 177.113C76.2875 177.433 76.1275 177.817 76.1275 178.297V186.937C75.3915 186.041 74.4955 185.337 73.4075 184.793C72.3515 184.281 71.1995 184.025 69.9515 184.025C68.4155 184.025 67.0395 184.409 65.7915 185.177C64.5435 185.977 63.5515 187.033 62.8475 188.377C62.1435 189.721 61.7595 191.257 61.7595 192.889V192.889ZM64.8955 192.889C64.8955 191.769 65.1515 190.745 65.6635 189.849C66.1755 188.953 66.8475 188.217 67.7115 187.705C68.5755 187.193 69.5355 186.905 70.5915 186.905C71.6795 186.905 72.6395 187.193 73.5035 187.705C74.3675 188.217 75.0395 188.953 75.5195 189.849C76.0315 190.745 76.2555 191.769 76.2555 192.889C76.2555 194.041 76.0315 195.065 75.5195 195.961C75.0395 196.889 74.3675 197.625 73.5035 198.137C72.6395 198.649 71.6795 198.905 70.5915 198.905C69.5355 198.905 68.5755 198.649 67.7115 198.137C66.8475 197.625 66.1755 196.889 65.6635 195.961C65.1515 195.065 64.8955 194.041 64.8955 192.889Z" fill="black"/>
<path d="M85.9555 184.601C85.6355 184.921 85.5075 185.305 85.5075 185.785V200.025C85.5075 200.505 85.6355 200.889 85.9555 201.209C86.2755 201.529 86.6595 201.657 87.1395 201.657C87.6195 201.657 88.0035 201.529 88.3235 201.209C88.6115 200.889 88.7715 200.505 88.7715 200.025V185.785C88.7715 185.305 88.6115 184.921 88.3235 184.601C88.0035 184.313 87.6195 184.153 87.1395 184.153C86.6595 184.153 86.2755 184.313 85.9555 184.601Z" fill="black"/>
<path d="M110.299 187.769C109.627 186.553 108.699 185.593 107.547 184.953C106.427 184.377 105.211 184.057 103.867 184.025C103.835 184.025 103.771 183.993 103.771 183.993H96.411C95.963 183.993 95.611 184.153 95.323 184.441C95.003 184.761 94.875 185.113 94.875 185.529C94.875 185.561 94.875 185.625 94.875 185.657C94.875 185.721 94.875 185.753 94.875 185.785V200.057C94.875 200.537 95.003 200.921 95.323 201.241C95.643 201.561 96.027 201.689 96.507 201.689C96.987 201.689 97.371 201.561 97.691 201.241C97.979 200.921 98.139 200.537 98.139 200.057V191.033C98.139 190.265 98.331 189.593 98.747 188.953C99.163 188.345 99.739 187.865 100.475 187.481C101.211 187.129 102.043 186.937 102.939 186.937C104.475 186.937 105.691 187.385 106.619 188.281C107.547 189.177 108.027 190.489 108.027 192.185V200.057C108.027 200.537 108.155 200.921 108.475 201.241C108.795 201.561 109.179 201.689 109.659 201.689C110.107 201.689 110.491 201.561 110.811 201.241C111.131 200.921 111.291 200.537 111.291 200.057V192.185C111.291 190.457 110.939 188.985 110.299 187.769Z" fill="black"/>
<path d="M129.135 185.177C127.791 184.409 126.288 184.025 124.624 184.025C122.896 184.025 121.391 184.409 120.047 185.177C118.703 185.945 117.647 186.969 116.911 188.313C116.143 189.657 115.792 191.193 115.792 192.921C115.792 194.649 116.111 196.153 116.815 197.497C117.519 198.841 118.48 199.897 119.728 200.665C120.976 201.433 122.383 201.785 123.983 201.785C125.327 201.785 126.575 201.465 127.663 200.793C128.751 200.153 129.616 199.225 130.288 198.041V199.609C130.288 200.953 130.032 202.137 129.52 203.097C129.008 204.057 128.303 204.793 127.471 205.305C126.607 205.817 125.648 206.041 124.624 206.041C123.504 206.041 122.511 205.849 121.647 205.465C120.751 205.081 120.047 204.505 119.471 203.737C119.119 203.289 118.671 203.065 118.159 203.065C117.839 203.065 117.551 203.161 117.263 203.353C116.815 203.673 116.591 204.057 116.591 204.505C116.591 204.825 116.687 205.113 116.943 205.401C117.839 206.553 118.927 207.417 120.271 208.025C121.583 208.633 123.024 208.921 124.56 208.921C126.256 208.921 127.791 208.537 129.135 207.737C130.479 206.937 131.535 205.849 132.303 204.441C133.039 203.065 133.423 201.529 133.423 199.833V192.921C133.423 191.193 133.039 189.657 132.271 188.313C131.503 186.969 130.479 185.945 129.135 185.177V185.177ZM127.535 198.137C126.671 198.649 125.712 198.905 124.624 198.905C123.536 198.905 122.544 198.649 121.68 198.137C120.816 197.625 120.143 196.921 119.663 196.025C119.151 195.129 118.927 194.073 118.927 192.921C118.927 191.769 119.151 190.745 119.663 189.817C120.143 188.921 120.816 188.185 121.68 187.673C122.544 187.161 123.536 186.905 124.624 186.905C125.712 186.905 126.671 187.161 127.535 187.673C128.399 188.185 129.071 188.921 129.551 189.817C130.031 190.745 130.288 191.769 130.288 192.921C130.288 194.073 130.031 195.129 129.551 196.025C129.071 196.921 128.399 197.625 127.535 198.137V198.137Z" fill="black"/>
<path d="M167.271 184.505C167.047 184.281 166.727 184.153 166.279 184.153C165.447 184.153 164.904 184.665 164.616 185.625L161.095 196.633L158.215 185.369C158.087 185.017 157.895 184.729 157.639 184.505C157.383 184.281 157.031 184.153 156.647 184.153C156.199 184.153 155.847 184.281 155.591 184.505C155.335 184.729 155.143 185.017 155.047 185.369L151.784 196.409L148.327 185.625C148.135 185.113 147.911 184.761 147.655 184.505C147.399 184.281 147.047 184.153 146.663 184.153C145.767 184.153 145.319 184.601 145.319 185.497C145.319 185.817 145.352 186.137 145.448 186.393L150.184 200.601C150.28 200.921 150.471 201.177 150.759 201.369C151.047 201.561 151.367 201.657 151.719 201.657C152.039 201.657 152.359 201.561 152.647 201.369C152.935 201.177 153.127 200.921 153.255 200.601L156.551 188.985L159.688 200.601C159.752 200.921 159.944 201.177 160.232 201.369C160.52 201.561 160.839 201.657 161.223 201.657C161.543 201.657 161.863 201.561 162.151 201.369C162.407 201.177 162.6 200.921 162.728 200.601L167.464 186.393C167.56 186.137 167.624 185.817 167.624 185.465C167.624 185.081 167.495 184.761 167.271 184.505V184.505Z" fill="black"/>
<path d="M185.671 193.657C185.927 193.401 186.087 193.049 186.087 192.633C186.087 190.969 185.767 189.465 185.127 188.153C184.487 186.873 183.559 185.849 182.375 185.113C181.159 184.409 179.751 184.025 178.119 184.025C176.455 184.025 174.951 184.409 173.639 185.177C172.327 185.945 171.303 187.001 170.567 188.345C169.831 189.689 169.479 191.225 169.479 192.921C169.479 194.649 169.863 196.153 170.631 197.497C171.399 198.841 172.487 199.897 173.895 200.665C175.271 201.433 176.839 201.785 178.599 201.785C179.559 201.785 180.583 201.625 181.671 201.241C182.759 200.889 183.655 200.409 184.391 199.833C184.711 199.577 184.903 199.257 184.903 198.873C184.903 198.489 184.711 198.105 184.327 197.785C184.071 197.593 183.751 197.465 183.367 197.465C182.951 197.465 182.599 197.593 182.311 197.817C181.863 198.169 181.287 198.457 180.583 198.681C179.879 198.937 179.239 199.033 178.599 199.033C176.967 199.033 175.591 198.585 174.471 197.657C173.351 196.761 172.679 195.545 172.455 194.041H184.615C185.031 194.041 185.383 193.913 185.671 193.657V193.657ZM174.311 188.057C175.271 187.225 176.551 186.777 178.119 186.777C179.527 186.777 180.647 187.225 181.543 188.057C182.407 188.921 182.951 190.073 183.143 191.481H172.487C172.743 190.073 173.351 188.921 174.311 188.057Z" fill="black"/>
<path d="M206.794 188.377C206.09 187.033 205.098 185.977 203.85 185.177C202.602 184.409 201.226 184.025 199.69 184.025C198.442 184.025 197.29 184.281 196.234 184.793C195.146 185.305 194.25 186.041 193.514 186.937V178.297C193.514 177.817 193.354 177.433 193.034 177.113C192.714 176.825 192.33 176.665 191.882 176.665C191.37 176.665 190.986 176.825 190.698 177.113C190.378 177.433 190.25 177.817 190.25 178.297V192.889V193.465V200.281C190.25 200.697 190.378 201.049 190.698 201.337C190.986 201.657 191.338 201.785 191.786 201.785H198.858H198.922H199.05C200.682 201.785 202.186 201.401 203.53 200.633C204.874 199.865 205.93 198.777 206.73 197.433C207.498 196.089 207.882 194.585 207.882 192.889C207.882 191.257 207.498 189.721 206.794 188.377V188.377ZM203.978 195.961C203.466 196.889 202.794 197.625 201.93 198.137C201.066 198.649 200.106 198.905 199.05 198.905C197.962 198.905 197.002 198.649 196.138 198.137C195.274 197.625 194.602 196.889 194.122 195.961C193.61 195.065 193.386 194.041 193.386 192.889C193.386 191.769 193.61 190.745 194.122 189.849C194.602 188.953 195.274 188.217 196.138 187.705C197.002 187.193 197.962 186.905 199.05 186.905C200.106 186.905 201.066 187.193 201.93 187.705C202.794 188.217 203.466 188.953 203.978 189.849C204.49 190.745 204.746 191.769 204.746 192.889C204.746 194.041 204.49 195.065 203.978 195.961V195.961Z" fill="black"/>
<path d="M222.606 184.697C221.518 184.249 220.27 184.025 218.894 184.025C217.742 184.025 216.686 184.217 215.694 184.569C214.67 184.953 213.87 185.497 213.262 186.201C212.622 186.937 212.334 187.833 212.334 188.857C212.334 191.449 214.382 193.145 218.478 193.913C220.046 194.233 221.166 194.585 221.838 195.033C222.478 195.481 222.83 196.025 222.83 196.665C222.83 197.369 222.478 197.913 221.806 198.297C221.134 198.713 220.206 198.905 218.99 198.905C218.062 198.905 217.198 198.745 216.398 198.425C215.566 198.105 214.958 197.689 214.574 197.241C214.19 196.857 213.774 196.665 213.358 196.665C213.006 196.665 212.622 196.825 212.238 197.113C211.79 197.433 211.598 197.849 211.598 198.361C211.598 198.745 211.726 199.097 212.014 199.353C212.718 200.089 213.742 200.665 215.022 201.113C216.302 201.561 217.646 201.785 219.118 201.785C220.558 201.785 221.806 201.561 222.83 201.113C223.854 200.665 224.654 200.025 225.198 199.225C225.71 198.425 225.998 197.529 225.998 196.537C225.998 195.225 225.486 194.137 224.526 193.305C223.566 192.473 221.902 191.833 219.598 191.353C218.446 191.129 217.582 190.905 217.006 190.649C216.398 190.393 215.982 190.137 215.79 189.849C215.566 189.561 215.47 189.209 215.47 188.761C215.47 188.185 215.758 187.705 216.398 187.385C217.038 187.065 217.838 186.873 218.83 186.873C219.662 186.873 220.398 187.001 221.006 187.193C221.582 187.385 222.158 187.737 222.702 188.217C223.15 188.633 223.63 188.825 224.206 188.825C224.558 188.825 224.846 188.761 225.102 188.569C225.454 188.281 225.646 187.961 225.646 187.577C225.646 187.257 225.486 186.905 225.23 186.553C224.59 185.785 223.694 185.145 222.606 184.697V184.697Z" fill="black"/>
<path d="M230.893 184.601C230.573 184.921 230.445 185.305 230.445 185.785V200.025C230.445 200.505 230.573 200.889 230.893 201.209C231.213 201.529 231.597 201.657 232.077 201.657C232.557 201.657 232.941 201.529 233.261 201.209C233.549 200.889 233.709 200.505 233.709 200.025V185.785C233.709 185.305 233.549 184.921 233.261 184.601C232.941 184.313 232.557 184.153 232.077 184.153C231.597 184.153 231.213 184.313 230.893 184.601Z" fill="black"/>
<path d="M240.548 184.793V187.545V195.449C240.548 196.633 240.772 197.689 241.284 198.617C241.764 199.577 242.437 200.313 243.301 200.857C244.165 201.401 245.124 201.657 246.18 201.657H246.757C247.301 201.657 247.748 201.529 248.1 201.209C248.452 200.921 248.645 200.537 248.645 200.057C248.645 199.609 248.484 199.225 248.228 198.905C247.972 198.617 247.652 198.457 247.268 198.457H246.18C245.476 198.457 244.9 198.169 244.452 197.593C243.972 197.017 243.749 196.313 243.749 195.449V187.545H246.469C246.917 187.545 247.268 187.417 247.556 187.161C247.812 186.905 247.973 186.585 247.973 186.201C247.973 185.785 247.812 185.433 247.556 185.177C247.268 184.921 246.917 184.793 246.469 184.793H243.749V180.185C243.749 179.737 243.589 179.353 243.301 179.033C242.981 178.745 242.596 178.585 242.148 178.585C241.668 178.585 241.284 178.745 240.996 179.033C240.676 179.353 240.548 179.737 240.548 180.185V184.793Z" fill="black"/>
<path d="M267.921 193.657C268.177 193.401 268.337 193.049 268.337 192.633C268.337 190.969 268.017 189.465 267.377 188.153C266.737 186.873 265.809 185.849 264.625 185.113C263.409 184.409 262.001 184.025 260.369 184.025C258.705 184.025 257.201 184.409 255.889 185.177C254.577 185.945 253.553 187.001 252.817 188.345C252.081 189.689 251.729 191.225 251.729 192.921C251.729 194.649 252.113 196.153 252.881 197.497C253.649 198.841 254.737 199.897 256.145 200.665C257.521 201.433 259.089 201.785 260.849 201.785C261.809 201.785 262.833 201.625 263.921 201.241C265.009 200.889 265.905 200.409 266.641 199.833C266.961 199.577 267.153 199.257 267.153 198.873C267.153 198.489 266.961 198.105 266.577 197.785C266.321 197.593 266.001 197.465 265.617 197.465C265.201 197.465 264.849 197.593 264.561 197.817C264.113 198.169 263.537 198.457 262.833 198.681C262.129 198.937 261.489 199.033 260.849 199.033C259.217 199.033 257.841 198.585 256.721 197.657C255.601 196.761 254.929 195.545 254.705 194.041H266.865C267.281 194.041 267.633 193.913 267.921 193.657V193.657ZM256.561 188.057C257.521 187.225 258.801 186.777 260.369 186.777C261.777 186.777 262.897 187.225 263.793 188.057C264.657 188.921 265.201 190.073 265.393 191.481H254.737C254.993 190.073 255.601 188.921 256.561 188.057Z" fill="black"/>
<path d="M282.356 184.697C281.268 184.249 280.02 184.025 278.644 184.025C277.492 184.025 276.436 184.217 275.444 184.569C274.42 184.953 273.62 185.497 273.012 186.201C272.372 186.937 272.084 187.833 272.084 188.857C272.084 191.449 274.132 193.145 278.228 193.913C279.796 194.233 280.916 194.585 281.588 195.033C282.228 195.481 282.58 196.025 282.58 196.665C282.58 197.369 282.228 197.913 281.556 198.297C280.884 198.713 279.956 198.905 278.74 198.905C277.812 198.905 276.948 198.745 276.148 198.425C275.316 198.105 274.708 197.689 274.324 197.241C273.94 196.857 273.524 196.665 273.108 196.665C272.756 196.665 272.372 196.825 271.988 197.113C271.54 197.433 271.348 197.849 271.348 198.361C271.348 198.745 271.476 199.097 271.764 199.353C272.468 200.089 273.492 200.665 274.772 201.113C276.052 201.561 277.396 201.785 278.868 201.785C280.308 201.785 281.556 201.561 282.58 201.113C283.604 200.665 284.404 200.025 284.948 199.225C285.46 198.425 285.748 197.529 285.748 196.537C285.748 195.225 285.236 194.137 284.276 193.305C283.316 192.473 281.652 191.833 279.348 191.353C278.196 191.129 277.332 190.905 276.756 190.649C276.148 190.393 275.732 190.137 275.54 189.849C275.316 189.561 275.22 189.209 275.22 188.761C275.22 188.185 275.508 187.705 276.148 187.385C276.788 187.065 277.588 186.873 278.58 186.873C279.412 186.873 280.148 187.001 280.756 187.193C281.332 187.385 281.908 187.737 282.452 188.217C282.9 188.633 283.38 188.825 283.956 188.825C284.308 188.825 284.596 188.761 284.852 188.569C285.204 188.281 285.396 187.961 285.396 187.577C285.396 187.257 285.236 186.905 284.98 186.553C284.34 185.785 283.444 185.145 282.356 184.697V184.697Z" fill="black"/>
<path d="M318.834 184.505C318.61 184.281 318.29 184.153 317.842 184.153C317.01 184.153 316.466 184.665 316.178 185.625L312.658 196.633L309.778 185.369C309.65 185.017 309.458 184.729 309.202 184.505C308.946 184.281 308.594 184.153 308.21 184.153C307.762 184.153 307.41 184.281 307.154 184.505C306.898 184.729 306.706 185.017 306.61 185.369L303.346 196.409L299.89 185.625C299.698 185.113 299.474 184.761 299.218 184.505C298.962 184.281 298.61 184.153 298.226 184.153C297.33 184.153 296.882 184.601 296.882 185.497C296.882 185.817 296.914 186.137 297.01 186.393L301.746 200.601C301.842 200.921 302.034 201.177 302.322 201.369C302.61 201.561 302.93 201.657 303.282 201.657C303.602 201.657 303.922 201.561 304.21 201.369C304.498 201.177 304.69 200.921 304.818 200.601L308.114 188.985L311.25 200.601C311.314 200.921 311.506 201.177 311.794 201.369C312.082 201.561 312.402 201.657 312.786 201.657C313.106 201.657 313.426 201.561 313.714 201.369C313.97 201.177 314.162 200.921 314.29 200.601L319.026 186.393C319.122 186.137 319.186 185.817 319.186 185.465C319.186 185.081 319.058 184.761 318.834 184.505V184.505Z" fill="black"/>
<path d="M323.33 184.601C323.01 184.921 322.882 185.305 322.882 185.785V200.025C322.882 200.505 323.01 200.889 323.33 201.209C323.65 201.529 324.034 201.657 324.514 201.657C324.994 201.657 325.378 201.529 325.698 201.209C325.986 200.889 326.146 200.505 326.146 200.025V185.785C326.146 185.305 325.986 184.921 325.698 184.601C325.378 184.313 324.994 184.153 324.514 184.153C324.034 184.153 323.65 184.313 323.33 184.601Z" fill="black"/>
<path d="M332.986 184.793V187.545V195.449C332.986 196.633 333.21 197.689 333.722 198.617C334.202 199.577 334.874 200.313 335.738 200.857C336.602 201.401 337.562 201.657 338.618 201.657H339.194C339.738 201.657 340.186 201.529 340.538 201.209C340.89 200.921 341.082 200.537 341.082 200.057C341.082 199.609 340.922 199.225 340.666 198.905C340.41 198.617 340.09 198.457 339.706 198.457H338.618C337.914 198.457 337.338 198.169 336.89 197.593C336.41 197.017 336.186 196.313 336.186 195.449V187.545H338.906C339.354 187.545 339.706 187.417 339.994 187.161C340.25 186.905 340.41 186.585 340.41 186.201C340.41 185.785 340.25 185.433 339.994 185.177C339.706 184.921 339.354 184.793 338.906 184.793H336.186V180.185C336.186 179.737 336.026 179.353 335.738 179.033C335.418 178.745 335.034 178.585 334.586 178.585C334.106 178.585 333.722 178.745 333.434 179.033C333.114 179.353 332.986 179.737 332.986 180.185V184.793Z" fill="black"/>
<path d="M357.734 184.953C356.55 184.313 355.238 183.993 353.766 183.993C352.678 183.993 351.686 184.185 350.758 184.569C349.798 184.953 348.998 185.465 348.326 186.137V178.297C348.326 177.817 348.166 177.433 347.878 177.113C347.558 176.825 347.174 176.665 346.694 176.665C346.214 176.665 345.83 176.825 345.51 177.113C345.19 177.433 345.062 177.817 345.062 178.297V200.057C345.062 200.537 345.19 200.921 345.51 201.241C345.83 201.561 346.214 201.689 346.694 201.689C347.174 201.689 347.558 201.561 347.878 201.241C348.166 200.921 348.326 200.537 348.326 200.057V191.033C348.326 190.265 348.518 189.593 348.934 188.953C349.35 188.345 349.926 187.865 350.662 187.481C351.398 187.129 352.23 186.937 353.126 186.937C354.662 186.937 355.878 187.385 356.806 188.281C357.734 189.177 358.214 190.457 358.214 192.185V200.057C358.214 200.537 358.342 200.921 358.662 201.241C358.982 201.561 359.366 201.689 359.846 201.689C360.294 201.689 360.678 201.561 360.998 201.241C361.318 200.921 361.478 200.537 361.478 200.057V192.185C361.478 190.457 361.126 188.985 360.486 187.769C359.814 186.553 358.886 185.593 357.734 184.953Z" fill="black"/>
<path d="M393.944 192.921C393.944 191.257 393.56 189.753 392.792 188.409C392.024 187.065 390.936 185.977 389.592 185.209C388.248 184.441 386.744 184.025 385.112 184.025H384.984H384.92H377.848C377.4 184.025 377.048 184.185 376.76 184.473C376.44 184.793 376.312 185.145 376.312 185.561V192.377V192.921V207.513C376.312 208.025 376.44 208.409 376.76 208.697C377.048 209.017 377.432 209.145 377.944 209.145C378.392 209.145 378.776 209.017 379.096 208.697C379.416 208.409 379.576 208.025 379.576 207.513V198.873C380.312 199.801 381.208 200.505 382.296 201.017C383.352 201.529 384.504 201.785 385.752 201.785C387.288 201.785 388.664 201.401 389.912 200.633C391.16 199.865 392.152 198.809 392.856 197.465C393.56 196.121 393.944 194.585 393.944 192.921V192.921ZM390.808 192.921C390.808 194.073 390.552 195.097 390.04 195.993C389.528 196.889 388.856 197.625 387.992 198.137C387.128 198.649 386.168 198.905 385.112 198.905C384.024 198.905 383.064 198.649 382.2 198.137C381.336 197.625 380.664 196.889 380.184 195.993C379.672 195.097 379.448 194.073 379.448 192.921C379.448 191.801 379.672 190.777 380.184 189.849C380.664 188.953 381.336 188.217 382.2 187.705C383.064 187.193 384.024 186.905 385.112 186.905C386.168 186.905 387.128 187.193 387.992 187.705C388.856 188.217 389.528 188.953 390.04 189.849C390.552 190.777 390.808 191.801 390.808 192.921Z" fill="black"/>
<path d="M414.108 193.657C414.364 193.401 414.524 193.049 414.524 192.633C414.524 190.969 414.204 189.465 413.564 188.153C412.924 186.873 411.996 185.849 410.812 185.113C409.596 184.409 408.188 184.025 406.556 184.025C404.892 184.025 403.388 184.409 402.076 185.177C400.764 185.945 399.74 187.001 399.004 188.345C398.268 189.689 397.916 191.225 397.916 192.921C397.916 194.649 398.3 196.153 399.068 197.497C399.836 198.841 400.924 199.897 402.332 200.665C403.708 201.433 405.276 201.785 407.036 201.785C407.996 201.785 409.02 201.625 410.108 201.241C411.196 200.889 412.092 200.409 412.828 199.833C413.148 199.577 413.34 199.257 413.34 198.873C413.34 198.489 413.148 198.105 412.764 197.785C412.508 197.593 412.188 197.465 411.804 197.465C411.388 197.465 411.036 197.593 410.748 197.817C410.3 198.169 409.724 198.457 409.02 198.681C408.316 198.937 407.676 199.033 407.036 199.033C405.404 199.033 404.028 198.585 402.908 197.657C401.788 196.761 401.116 195.545 400.892 194.041H413.052C413.468 194.041 413.82 193.913 414.108 193.657V193.657ZM402.748 188.057C403.708 187.225 404.988 186.777 406.556 186.777C407.964 186.777 409.084 187.225 409.98 188.057C410.844 188.921 411.388 190.073 411.58 191.481H400.924C401.18 190.073 401.788 188.921 402.748 188.057Z" fill="black"/>
<path d="M429.919 184.473C429.279 184.153 428.383 183.961 427.263 183.961C426.175 183.961 425.183 184.185 424.255 184.601C423.295 185.049 422.527 185.625 421.887 186.361V185.753C421.887 184.697 421.343 184.153 420.287 184.153C419.775 184.153 419.359 184.313 419.103 184.569C418.815 184.857 418.687 185.241 418.687 185.753V200.057C418.687 200.601 418.815 201.017 419.103 201.273C419.359 201.529 419.775 201.657 420.287 201.657C420.799 201.657 421.215 201.529 421.471 201.241C421.727 200.985 421.887 200.569 421.887 200.057V190.713C421.887 189.529 422.335 188.569 423.295 187.865C424.223 187.161 425.471 186.809 427.007 186.809C427.519 186.809 428.223 186.905 429.087 187.033C429.279 187.097 429.439 187.097 429.567 187.097C430.207 187.097 430.655 186.777 430.847 186.073C430.847 186.009 430.879 185.913 430.879 185.753C430.879 185.241 430.559 184.825 429.919 184.473Z" fill="black"/>
<path d="M444.106 184.697C443.018 184.249 441.77 184.025 440.394 184.025C439.242 184.025 438.186 184.217 437.194 184.569C436.17 184.953 435.37 185.497 434.762 186.201C434.122 186.937 433.834 187.833 433.834 188.857C433.834 191.449 435.882 193.145 439.978 193.913C441.546 194.233 442.666 194.585 443.338 195.033C443.978 195.481 444.33 196.025 444.33 196.665C444.33 197.369 443.978 197.913 443.306 198.297C442.634 198.713 441.706 198.905 440.49 198.905C439.562 198.905 438.698 198.745 437.898 198.425C437.066 198.105 436.458 197.689 436.074 197.241C435.69 196.857 435.274 196.665 434.858 196.665C434.506 196.665 434.122 196.825 433.738 197.113C433.29 197.433 433.098 197.849 433.098 198.361C433.098 198.745 433.226 199.097 433.514 199.353C434.218 200.089 435.242 200.665 436.522 201.113C437.802 201.561 439.146 201.785 440.618 201.785C442.058 201.785 443.306 201.561 444.33 201.113C445.354 200.665 446.154 200.025 446.698 199.225C447.21 198.425 447.498 197.529 447.498 196.537C447.498 195.225 446.986 194.137 446.026 193.305C445.066 192.473 443.402 191.833 441.098 191.353C439.946 191.129 439.082 190.905 438.506 190.649C437.898 190.393 437.482 190.137 437.29 189.849C437.066 189.561 436.97 189.209 436.97 188.761C436.97 188.185 437.258 187.705 437.898 187.385C438.538 187.065 439.338 186.873 440.33 186.873C441.162 186.873 441.898 187.001 442.506 187.193C443.082 187.385 443.658 187.737 444.202 188.217C444.65 188.633 445.13 188.825 445.706 188.825C446.058 188.825 446.346 188.761 446.602 188.569C446.954 188.281 447.146 187.961 447.146 187.577C447.146 187.257 446.986 186.905 446.73 186.553C446.09 185.785 445.194 185.145 444.106 184.697V184.697Z" fill="black"/>
<path d="M464.073 185.177C462.729 184.409 461.225 184.025 459.561 184.025C457.833 184.025 456.329 184.409 454.985 185.177C453.641 185.945 452.585 186.969 451.849 188.313C451.081 189.657 450.729 191.193 450.729 192.921C450.729 194.649 451.081 196.153 451.849 197.497C452.585 198.841 453.641 199.897 454.985 200.665C456.329 201.433 457.833 201.785 459.561 201.785C461.257 201.785 462.761 201.433 464.105 200.665C465.449 199.897 466.473 198.841 467.241 197.497C467.977 196.153 468.361 194.649 468.361 192.921C468.361 191.193 467.977 189.657 467.209 188.313C466.441 186.969 465.417 185.945 464.073 185.177ZM456.617 187.673C457.481 187.161 458.473 186.905 459.561 186.905C460.649 186.905 461.609 187.161 462.473 187.673C463.337 188.185 464.009 188.921 464.489 189.817C464.969 190.745 465.225 191.769 465.225 192.921C465.225 194.073 464.969 195.129 464.489 196.025C464.009 196.921 463.337 197.625 462.473 198.137C461.609 198.649 460.649 198.905 459.561 198.905C458.473 198.905 457.481 198.649 456.617 198.137C455.753 197.625 455.081 196.921 454.601 196.025C454.089 195.129 453.865 194.073 453.865 192.921C453.865 191.769 454.089 190.745 454.601 189.817C455.081 188.921 455.753 188.185 456.617 187.673Z" fill="black"/>
<path d="M488.674 187.769C488.002 186.553 487.074 185.593 485.922 184.953C484.802 184.377 483.586 184.057 482.242 184.025C482.21 184.025 482.146 183.993 482.146 183.993H474.786C474.338 183.993 473.986 184.153 473.698 184.441C473.378 184.761 473.25 185.113 473.25 185.529C473.25 185.561 473.25 185.625 473.25 185.657C473.25 185.721 473.25 185.753 473.25 185.785V200.057C473.25 200.537 473.378 200.921 473.698 201.241C474.018 201.561 474.402 201.689 474.882 201.689C475.362 201.689 475.746 201.561 476.066 201.241C476.354 200.921 476.514 200.537 476.514 200.057V191.033C476.514 190.265 476.706 189.593 477.122 188.953C477.538 188.345 478.114 187.865 478.85 187.481C479.586 187.129 480.418 186.937 481.314 186.937C482.85 186.937 484.066 187.385 484.994 188.281C485.922 189.177 486.402 190.489 486.402 192.185V200.057C486.402 200.537 486.53 200.921 486.85 201.241C487.17 201.561 487.554 201.689 488.034 201.689C488.482 201.689 488.866 201.561 489.186 201.241C489.506 200.921 489.666 200.537 489.666 200.057V192.185C489.666 190.457 489.314 188.985 488.674 187.769Z" fill="black"/>
<path d="M511.798 192.921C511.798 191.289 511.382 189.753 510.614 188.409C509.846 187.065 508.79 185.977 507.446 185.209C506.102 184.441 504.63 184.025 502.998 184.025C501.334 184.025 499.83 184.441 498.486 185.209C497.142 185.977 496.086 187.065 495.318 188.409C494.55 189.753 494.166 191.257 494.166 192.921C494.166 194.585 494.518 196.121 495.222 197.465C495.926 198.809 496.918 199.865 498.166 200.633C499.446 201.433 500.822 201.817 502.358 201.817H502.614H510.262C510.678 201.817 511.03 201.657 511.35 201.369C511.638 201.081 511.798 200.729 511.798 200.281V200.057V192.921ZM498.038 195.993C497.526 195.097 497.302 194.073 497.302 192.921C497.302 191.801 497.526 190.777 498.038 189.849C498.55 188.953 499.222 188.217 500.086 187.705C500.95 187.193 501.91 186.905 502.998 186.905C504.054 186.905 505.014 187.193 505.878 187.705C506.742 188.217 507.414 188.953 507.926 189.849C508.406 190.777 508.662 191.801 508.662 192.921C508.662 194.073 508.406 195.097 507.926 195.993C507.414 196.889 506.742 197.625 505.878 198.137C505.014 198.649 504.054 198.905 502.998 198.905C501.91 198.905 500.95 198.649 500.086 198.137C499.222 197.625 498.55 196.889 498.038 195.993Z" fill="black"/>
<path d="M516.495 177.113C516.175 177.433 516.047 177.817 516.047 178.265V195.737C516.047 196.889 516.24 197.913 516.656 198.809C517.04 199.705 517.616 200.409 518.352 200.921C519.088 201.433 519.919 201.657 520.847 201.657H520.911C521.551 201.657 522.063 201.529 522.479 201.209C522.863 200.921 523.088 200.537 523.088 200.057C523.088 199.609 522.928 199.225 522.672 198.905C522.416 198.617 522.064 198.457 521.648 198.457H520.847C520.367 198.457 519.983 198.201 519.695 197.689C519.375 197.177 519.247 196.537 519.247 195.737V178.265C519.247 177.817 519.087 177.433 518.799 177.113C518.479 176.825 518.096 176.665 517.648 176.665C517.168 176.665 516.783 176.825 516.495 177.113V177.113Z" fill="black"/>
<path d="M527.08 184.601C526.76 184.921 526.632 185.305 526.632 185.785V200.025C526.632 200.505 526.76 200.889 527.08 201.209C527.4 201.529 527.784 201.657 528.264 201.657C528.744 201.657 529.128 201.529 529.448 201.209C529.736 200.889 529.896 200.505 529.896 200.025V185.785C529.896 185.305 529.736 184.921 529.448 184.601C529.128 184.313 528.744 184.153 528.264 184.153C527.784 184.153 527.4 184.313 527.08 184.601Z" fill="black"/>
<path d="M536.736 184.793V187.545V195.449C536.736 196.633 536.96 197.689 537.472 198.617C537.952 199.577 538.624 200.313 539.488 200.857C540.352 201.401 541.312 201.657 542.368 201.657H542.944C543.488 201.657 543.936 201.529 544.288 201.209C544.64 200.921 544.832 200.537 544.832 200.057C544.832 199.609 544.672 199.225 544.416 198.905C544.16 198.617 543.84 198.457 543.456 198.457H542.368C541.664 198.457 541.088 198.169 540.64 197.593C540.16 197.017 539.936 196.313 539.936 195.449V187.545H542.656C543.104 187.545 543.456 187.417 543.744 187.161C544 186.905 544.16 186.585 544.16 186.201C544.16 185.785 544 185.433 543.744 185.177C543.456 184.921 543.104 184.793 542.656 184.793H539.936V180.185C539.936 179.737 539.776 179.353 539.488 179.033C539.168 178.745 538.784 178.585 538.336 178.585C537.856 178.585 537.472 178.745 537.184 179.033C536.864 179.353 536.736 179.737 536.736 180.185V184.793Z" fill="black"/>
<path d="M563.18 185.561C563.18 184.985 562.828 184.569 562.188 184.313C561.932 184.217 561.676 184.153 561.42 184.153C560.844 184.153 560.428 184.473 560.172 185.081L555.02 196.697L549.164 185.049C548.844 184.473 548.396 184.153 547.82 184.153C547.564 184.153 547.372 184.217 547.18 184.281C546.892 184.409 546.668 184.601 546.508 184.825C546.316 185.081 546.252 185.337 546.252 185.593C546.252 185.849 546.284 186.073 546.412 186.265L553.612 199.929L550.412 207.129C550.284 207.385 550.22 207.641 550.22 207.897C550.22 208.473 550.54 208.889 551.18 209.145C551.468 209.273 551.724 209.337 551.948 209.337C552.524 209.337 552.94 209.017 553.196 208.345L562.988 186.329C563.116 186.041 563.18 185.785 563.18 185.561V185.561Z" fill="black"/>
<path d="M100.407 65.3083C98.0631 59.9962 94.9383 55.309 90.8761 51.0905C86.6576 47.0282 81.9704 43.9034 76.6583 41.5598C71.1899 39.2162 65.409 38.1226 59.3156 38.1226C53.3785 38.1226 47.4414 39.2162 41.973 41.5598C36.6608 43.9034 31.9737 47.0282 27.7552 51.0905C23.6929 55.1527 20.5681 59.9962 18.2245 65.3083C16.0371 70.7767 14.7872 76.5576 14.7872 82.651V149.053L38.2232 156.865V121.867C39.4731 122.492 40.723 123.117 41.973 123.586C47.4414 125.929 53.3785 127.179 59.3156 127.179C65.2527 127.179 71.1899 125.929 76.6583 123.586C81.9704 121.398 86.6576 118.274 90.8761 114.055C94.9383 109.993 98.0631 105.306 100.407 99.9936C102.75 94.5252 103.844 88.5881 103.844 82.651C103.844 76.5576 102.75 70.7767 100.407 65.3083ZM59.3156 103.743C47.7538 103.743 38.2232 94.2127 38.2232 82.651C38.2232 71.0892 47.7538 61.5586 59.3156 61.5586C70.8774 61.5586 80.408 71.0892 80.408 82.651C80.408 94.2127 70.8774 103.743 59.3156 103.743V103.743Z" fill="black"/>
<path d="M134.667 125.929V87.4944C134.667 72.4954 146.854 60.1524 162.009 60.1524V36.7164C155.135 36.7164 148.416 38.1226 142.167 40.7786C136.23 43.2785 130.761 47.0282 126.074 51.7154C121.387 56.2464 117.793 61.7148 115.137 67.8082C112.481 74.0578 111.231 80.6198 111.231 87.4944V125.929H134.667Z" fill="black"/>
<path d="M174.12 156.865H198.962L246.459 38.9038H221.461L201.775 88.2756L180.839 38.9038H155.059L189.9 117.649L174.12 156.865Z" fill="black"/>
<path d="M298.548 60.7774V38.9038H273.706V10.9368L250.27 18.7488V79.3699C250.27 85.932 251.52 92.1816 254.02 98.1187C256.364 103.9 259.957 109.056 264.332 113.43C268.707 117.961 273.862 121.398 279.643 123.898C285.58 126.398 291.986 127.648 298.548 127.648V104.212C284.799 104.212 273.706 93.119 273.706 79.3699V60.7774H298.548Z" fill="black"/>
<path d="M338.372 126.554C344.466 126.554 350.403 125.305 356.028 122.805C361.496 120.461 366.339 117.024 370.402 112.805L353.84 97.1813C349.778 101.556 344.31 103.9 338.372 103.9C330.717 103.9 323.998 99.8374 320.249 93.9003H382.276V82.4947C382.276 70.7767 377.745 59.6837 369.464 51.403C361.184 43.1223 350.09 38.4351 338.372 38.4351C326.498 38.4351 315.561 43.1223 307.124 51.403C298.844 59.6837 294.313 70.7767 294.313 82.4947C294.313 94.2127 298.844 105.306 307.124 113.587C315.561 121.867 326.498 126.554 338.372 126.554V126.554ZM320.249 71.2455C323.998 65.1521 330.717 61.0899 338.372 61.0899C345.872 61.0899 352.59 65.1521 356.496 71.2455H320.249Z" fill="black"/>
<path d="M427.544 127.179C442.074 127.179 455.823 119.992 464.26 107.806L444.887 94.5252C440.981 100.306 434.419 103.743 427.544 103.743C415.826 103.743 406.452 94.2127 406.452 82.651C406.452 70.933 415.826 61.5586 427.544 61.5586C434.262 61.5586 440.824 64.8396 444.73 70.4642L463.948 57.0276C459.886 51.2467 454.417 46.5595 448.324 43.2785C441.918 39.8412 434.731 38.1226 427.544 38.1226C421.451 38.1226 415.67 39.2162 410.201 41.5598C404.889 43.9034 400.046 47.0282 395.984 51.0905C391.921 55.309 388.64 59.9962 386.453 65.3083C384.109 70.7767 383.016 76.7138 383.016 82.651C383.016 88.5881 384.109 94.5252 386.453 99.9936C388.64 105.306 391.921 109.993 395.984 114.211C400.046 118.274 404.889 121.398 410.201 123.742C415.67 125.929 421.451 127.179 427.544 127.179V127.179Z" fill="black"/>
<path d="M536.675 51.0905C529.176 43.591 519.333 39.5287 508.708 39.5287C503.084 39.5287 497.615 40.6224 492.616 42.966V0L469.179 7.81201V75.6202C469.023 76.8701 469.023 77.9638 469.023 79.2137H469.179V125.929H492.616V76.8701C493.709 69.0581 500.427 62.9647 508.708 62.9647C517.614 62.9647 524.957 70.1518 524.957 79.2137V125.929H548.393V79.2137C548.393 68.5894 544.175 58.59 536.675 51.0905V51.0905Z" fill="black"/>
</svg>
