<svg width="119" height="44" viewBox="0 0 119 44" fill="none" xmlns="http://www.w3.org/2000/svg">
<path d="M3.47734 39.5945C3.32937 39.312 3.12086 39.09 2.85855 38.9219C2.59623 38.7605 2.30702 38.6798 1.98417 38.6798C1.72186 38.6798 1.47972 38.7336 1.25776 38.8412C1.02908 38.9488 0.840748 39.1035 0.68605 39.2918V37.4758C0.68605 37.3749 0.652421 37.2942 0.585161 37.2269C0.517901 37.1664 0.437187 37.1328 0.343024 37.1328C0.235408 37.1328 0.154698 37.1664 0.0941636 37.2269C0.0269036 37.2942 0 37.3749 0 37.4758V40.5429V40.6639V42.0966C0 42.184 0.0269036 42.258 0.0941636 42.3185C0.154698 42.3858 0.228683 42.4127 0.322847 42.4127H1.80929H1.82274H1.84965C2.19267 42.4127 2.5088 42.332 2.79129 42.1706C3.07378 42.0091 3.29574 41.7804 3.46389 41.498C3.62531 41.2155 3.70602 40.8993 3.70602 40.5429C3.70602 40.1998 3.62531 39.877 3.47734 39.5945V39.5945ZM2.88545 41.1886C2.77784 41.3836 2.63659 41.5383 2.45499 41.6459C2.27339 41.7535 2.0716 41.8074 1.84965 41.8074C1.62096 41.8074 1.41919 41.7535 1.23758 41.6459C1.05598 41.5383 0.914735 41.3836 0.813845 41.1886C0.706229 41.0002 0.659148 40.785 0.659148 40.5429C0.659148 40.3075 0.706229 40.0922 0.813845 39.9039C0.914735 39.7156 1.05598 39.5609 1.23758 39.4533C1.41919 39.3456 1.62096 39.2851 1.84965 39.2851C2.0716 39.2851 2.27339 39.3456 2.45499 39.4533C2.63659 39.5609 2.77784 39.7156 2.88545 39.9039C2.99307 40.0922 3.04688 40.3075 3.04688 40.5429C3.04688 40.785 2.99307 41.0002 2.88545 41.1886V41.1886Z" fill="white"/>
<path d="M8.10565 42.0427V39.0429C8.10565 38.942 8.07202 38.8613 8.01149 38.7941C7.94423 38.7335 7.86352 38.6999 7.76263 38.6999C7.66174 38.6999 7.58102 38.7335 7.51376 38.7941C7.4465 38.8613 7.4196 38.942 7.4196 39.0429V40.9396C7.4196 41.1078 7.37252 41.249 7.28508 41.3768C7.19764 41.5114 7.07657 41.6122 6.92188 41.6862C6.76718 41.7669 6.5923 41.8006 6.4107 41.8006C6.08113 41.8006 5.82554 41.7131 5.63048 41.5248C5.43543 41.3365 5.34126 41.0607 5.34126 40.6975V39.0429C5.34126 38.9488 5.30764 38.868 5.24038 38.8008C5.17312 38.7335 5.0924 38.6999 4.99824 38.6999C4.89735 38.6999 4.81664 38.7335 4.74938 38.8008C4.68212 38.868 4.65521 38.9488 4.65521 39.0429V40.6975C4.65521 41.0674 4.72247 41.3768 4.86372 41.6324C4.99824 41.888 5.19329 42.0898 5.44215 42.2176C5.67756 42.3521 5.93315 42.4194 6.21564 42.4261C6.2291 42.4261 6.747 42.4261 7.78953 42.4261C7.87697 42.4261 7.95095 42.3925 8.01149 42.3319C8.07202 42.2714 8.10565 42.1974 8.10565 42.1032V42.0427Z" fill="white"/>
<path d="M9.47533 38.8008C9.40807 38.868 9.38116 38.9487 9.38116 39.0496V42.0427C9.38116 42.1436 9.40807 42.2243 9.47533 42.2916C9.54259 42.3588 9.6233 42.3857 9.72419 42.3857C9.82508 42.3857 9.90579 42.3588 9.97305 42.2916C10.0336 42.2243 10.0672 42.1436 10.0672 42.0427V39.0496C10.0672 38.9487 10.0336 38.868 9.97305 38.8008C9.90579 38.7402 9.82508 38.7066 9.72419 38.7066C9.6233 38.7066 9.54259 38.7402 9.47533 38.8008Z" fill="white"/>
<path d="M11.3098 37.2269C11.2425 37.2942 11.2156 37.3749 11.2156 37.4691V41.1415C11.2156 41.3836 11.256 41.5988 11.3434 41.7872C11.4241 41.9755 11.5452 42.1235 11.6999 42.2311C11.8546 42.3387 12.0295 42.3858 12.2245 42.3858H12.238C12.3725 42.3858 12.4801 42.3589 12.5676 42.2916C12.6483 42.2311 12.6954 42.1504 12.6954 42.0495C12.6954 41.9553 12.6617 41.8746 12.6079 41.8074C12.5541 41.7468 12.4801 41.7132 12.3927 41.7132H12.2245C12.1237 41.7132 12.0429 41.6594 11.9824 41.5518C11.9151 41.4441 11.8882 41.3096 11.8882 41.1415V37.4691C11.8882 37.3749 11.8546 37.2942 11.7941 37.2269C11.7268 37.1664 11.6461 37.1328 11.5519 37.1328C11.451 37.1328 11.3703 37.1664 11.3098 37.2269V37.2269Z" fill="white"/>
<path d="M12.9811 40.5429C12.9811 40.8993 13.0618 41.2155 13.2232 41.498C13.3846 41.7804 13.6133 42.0091 13.8958 42.1706C14.1783 42.332 14.4944 42.4127 14.8375 42.4127H14.8644H14.8778H16.3643C16.4584 42.4127 16.5324 42.3858 16.5929 42.3253C16.6602 42.258 16.6871 42.184 16.6871 42.0966V40.6639V40.5429V37.4758C16.6871 37.3749 16.6602 37.2942 16.5929 37.2269C16.5324 37.1664 16.4517 37.1328 16.3441 37.1328C16.2499 37.1328 16.1692 37.1664 16.1019 37.2269C16.0347 37.2942 16.0011 37.3749 16.0011 37.4758V39.2918C15.8464 39.1035 15.658 38.9555 15.4293 38.8412C15.2074 38.7336 14.9653 38.6798 14.7029 38.6798C14.3801 38.6798 14.0909 38.7605 13.8286 38.9219C13.5662 39.09 13.3577 39.312 13.2098 39.5945C13.0618 39.877 12.9811 40.1998 12.9811 40.5429V40.5429ZM13.6402 40.5429C13.6402 40.3075 13.694 40.0922 13.8016 39.9039C13.9093 39.7156 14.0505 39.5609 14.2321 39.4533C14.4137 39.3456 14.6155 39.2851 14.8375 39.2851C15.0661 39.2851 15.2679 39.3456 15.4495 39.4533C15.6311 39.5609 15.7724 39.7156 15.8733 39.9039C15.9809 40.0922 16.028 40.3075 16.028 40.5429C16.028 40.785 15.9809 41.0002 15.8733 41.1886C15.7724 41.3836 15.6311 41.5383 15.4495 41.6459C15.2679 41.7535 15.0661 41.8074 14.8375 41.8074C14.6155 41.8074 14.4137 41.7535 14.2321 41.6459C14.0505 41.5383 13.9093 41.3836 13.8016 41.1886C13.694 41.0002 13.6402 40.785 13.6402 40.5429Z" fill="white"/>
<path d="M18.0668 38.8008C17.9995 38.868 17.9726 38.9487 17.9726 39.0496V42.0427C17.9726 42.1436 17.9995 42.2243 18.0668 42.2916C18.134 42.3588 18.2148 42.3857 18.3156 42.3857C18.4165 42.3857 18.4972 42.3588 18.5645 42.2916C18.625 42.2243 18.6587 42.1436 18.6587 42.0427V39.0496C18.6587 38.9487 18.625 38.868 18.5645 38.8008C18.4972 38.7402 18.4165 38.7066 18.3156 38.7066C18.2148 38.7066 18.134 38.7402 18.0668 38.8008Z" fill="white"/>
<path d="M23.1835 39.4667C23.0422 39.2111 22.8472 39.0093 22.605 38.8748C22.3696 38.7537 22.114 38.6865 21.8315 38.6797C21.8248 38.6797 21.8114 38.673 21.8114 38.673H20.2644C20.1702 38.673 20.0962 38.7066 20.0357 38.7672C19.9684 38.8344 19.9415 38.9084 19.9415 38.9959C19.9415 39.0026 19.9415 39.016 19.9415 39.0228C19.9415 39.0362 19.9415 39.0429 19.9415 39.0497V42.0495C19.9415 42.1503 19.9684 42.2311 20.0357 42.2983C20.103 42.3656 20.1837 42.3925 20.2846 42.3925C20.3854 42.3925 20.4662 42.3656 20.5334 42.2983C20.594 42.2311 20.6276 42.1503 20.6276 42.0495V40.1527C20.6276 39.9913 20.6679 39.8501 20.7554 39.7155C20.8428 39.5877 20.9639 39.4868 21.1186 39.4061C21.2733 39.3322 21.4482 39.2918 21.6365 39.2918C21.9593 39.2918 22.2149 39.386 22.41 39.5743C22.605 39.7626 22.7059 40.0384 22.7059 40.3949V42.0495C22.7059 42.1503 22.7328 42.2311 22.8001 42.2983C22.8673 42.3656 22.948 42.3925 23.0489 42.3925C23.1431 42.3925 23.2238 42.3656 23.2911 42.2983C23.3583 42.2311 23.392 42.1503 23.392 42.0495V40.3949C23.392 40.0317 23.318 39.7223 23.1835 39.4667Z" fill="white"/>
<path d="M27.1427 38.9219C26.8602 38.7605 26.5441 38.6797 26.1943 38.6797C25.8311 38.6797 25.515 38.7605 25.2325 38.9219C24.95 39.0833 24.7281 39.2985 24.5734 39.581C24.4119 39.8635 24.338 40.1864 24.338 40.5496C24.338 40.9128 24.4052 41.2289 24.5532 41.5114C24.7012 41.7939 24.9029 42.0158 25.1653 42.1773C25.4276 42.3387 25.7235 42.4127 26.0598 42.4127C26.3423 42.4127 26.6046 42.3454 26.8333 42.2042C27.062 42.0697 27.2436 41.8746 27.3848 41.6257V41.9553C27.3848 42.2378 27.331 42.4867 27.2234 42.6884C27.1158 42.8902 26.9678 43.0449 26.7929 43.1525C26.6113 43.2602 26.4096 43.3072 26.1943 43.3072C25.9589 43.3072 25.7504 43.2669 25.5688 43.1862C25.3805 43.1055 25.2325 42.9844 25.1114 42.823C25.0375 42.7288 24.9433 42.6817 24.8357 42.6817C24.7684 42.6817 24.7079 42.7019 24.6473 42.7423C24.5532 42.8095 24.5061 42.8902 24.5061 42.9844C24.5061 43.0516 24.5263 43.1122 24.5801 43.1727C24.7684 43.4149 24.9971 43.5965 25.2796 43.7242C25.5554 43.852 25.858 43.9126 26.1809 43.9126C26.5374 43.9126 26.8602 43.8319 27.1427 43.6637C27.4252 43.4956 27.6471 43.2669 27.8086 42.9709C27.9633 42.6817 28.044 42.3589 28.044 42.0024V40.5496C28.044 40.1864 27.9633 39.8635 27.8018 39.581C27.6404 39.2985 27.4252 39.0833 27.1427 38.9219V38.9219ZM26.8064 41.6459C26.6248 41.7535 26.423 41.8073 26.1943 41.8073C25.9656 41.8073 25.7571 41.7535 25.5755 41.6459C25.3939 41.5383 25.2527 41.3903 25.1518 41.202C25.0442 41.0137 24.9971 40.7917 24.9971 40.5496C24.9971 40.3074 25.0442 40.0922 25.1518 39.8972C25.2527 39.7088 25.3939 39.5541 25.5755 39.4465C25.7571 39.3389 25.9656 39.2851 26.1943 39.2851C26.423 39.2851 26.6248 39.3389 26.8064 39.4465C26.988 39.5541 27.1292 39.7088 27.2301 39.8972C27.331 40.0922 27.3848 40.3074 27.3848 40.5496C27.3848 40.7917 27.331 41.0137 27.2301 41.202C27.1292 41.3903 26.988 41.5383 26.8064 41.6459V41.6459Z" fill="white"/>
<path d="M35.1584 38.7806C35.1113 38.7335 35.044 38.7066 34.9499 38.7066C34.775 38.7066 34.6607 38.8142 34.6001 39.016L33.8603 41.3297L33.2549 38.9622C33.228 38.8882 33.1877 38.8277 33.1339 38.7806C33.08 38.7335 33.0061 38.7066 32.9253 38.7066C32.8312 38.7066 32.7572 38.7335 32.7034 38.7806C32.6496 38.8277 32.6092 38.8882 32.589 38.9622L31.903 41.2827L31.1766 39.016C31.1362 38.9084 31.0891 38.8344 31.0353 38.7806C30.9815 38.7335 30.9075 38.7066 30.8268 38.7066C30.6385 38.7066 30.5443 38.8008 30.5443 38.9891C30.5443 39.0564 30.5511 39.1236 30.5713 39.1774L31.5667 42.1638C31.5869 42.231 31.6272 42.2848 31.6878 42.3252C31.7483 42.3655 31.8156 42.3857 31.8895 42.3857C31.9568 42.3857 32.0241 42.3655 32.0846 42.3252C32.1451 42.2848 32.1855 42.231 32.2124 42.1638L32.9052 39.7222L33.5643 42.1638C33.5778 42.231 33.6181 42.2848 33.6787 42.3252C33.7392 42.3655 33.8064 42.3857 33.8872 42.3857C33.9544 42.3857 34.0217 42.3655 34.0822 42.3252C34.136 42.2848 34.1764 42.231 34.2033 42.1638L35.1987 39.1774C35.2189 39.1236 35.2324 39.0564 35.2324 38.9824C35.2324 38.9017 35.2055 38.8344 35.1584 38.7806V38.7806Z" fill="white"/>
<path d="M39.0257 40.7043C39.0795 40.6505 39.1132 40.5765 39.1132 40.489C39.1132 40.1393 39.0459 39.8232 38.9114 39.5474C38.7769 39.2784 38.5818 39.0631 38.333 38.9084C38.0774 38.7605 37.7814 38.6797 37.4384 38.6797C37.0886 38.6797 36.7725 38.7605 36.4968 38.9219C36.221 39.0833 36.0058 39.3053 35.8511 39.5878C35.6964 39.8703 35.6224 40.1931 35.6224 40.5496C35.6224 40.9128 35.7031 41.2289 35.8645 41.5114C36.0259 41.7939 36.2546 42.0158 36.5506 42.1773C36.8398 42.3387 37.1694 42.4127 37.5393 42.4127C37.7411 42.4127 37.9563 42.379 38.185 42.2983C38.4137 42.2243 38.602 42.1235 38.7567 42.0024C38.8239 41.9486 38.8643 41.8813 38.8643 41.8006C38.8643 41.7199 38.8239 41.6392 38.7432 41.5719C38.6894 41.5316 38.6222 41.5047 38.5415 41.5047C38.454 41.5047 38.38 41.5316 38.3195 41.5787C38.2253 41.6526 38.1043 41.7132 37.9563 41.7603C37.8083 41.8141 37.6738 41.8342 37.5393 41.8342C37.1963 41.8342 36.907 41.7401 36.6716 41.545C36.4362 41.3567 36.295 41.1011 36.2479 40.785H38.8038C38.8912 40.785 38.9652 40.7581 39.0257 40.7043V40.7043ZM36.638 39.5272C36.8398 39.3523 37.1088 39.2582 37.4384 39.2582C37.7343 39.2582 37.9697 39.3523 38.1581 39.5272C38.3397 39.7088 38.454 39.951 38.4944 40.2469H36.2546C36.3084 39.951 36.4362 39.7088 36.638 39.5272Z" fill="white"/>
<path d="M43.4655 39.5945C43.3176 39.312 43.1091 39.09 42.8467 38.9219C42.5844 38.7605 42.2952 38.6798 41.9724 38.6798C41.71 38.6798 41.4679 38.7336 41.246 38.8412C41.0173 38.9488 40.8289 39.1035 40.6742 39.2918V37.4758C40.6742 37.3749 40.6406 37.2942 40.5734 37.2269C40.5061 37.1664 40.4254 37.1328 40.3312 37.1328C40.2236 37.1328 40.1429 37.1664 40.0824 37.2269C40.0151 37.2942 39.9882 37.3749 39.9882 37.4758V40.5429V40.6639V42.0966C39.9882 42.184 40.0151 42.258 40.0824 42.3185C40.1429 42.3858 40.2169 42.4127 40.311 42.4127H41.7975H41.8109H41.8378C42.1809 42.4127 42.497 42.332 42.7795 42.1706C43.062 42.0091 43.2839 41.7804 43.4521 41.498C43.6135 41.2155 43.6942 40.8993 43.6942 40.5429C43.6942 40.1998 43.6135 39.877 43.4655 39.5945V39.5945ZM42.8736 41.1886C42.766 41.3836 42.6248 41.5383 42.4432 41.6459C42.2616 41.7535 42.0598 41.8074 41.8378 41.8074C41.6092 41.8074 41.4074 41.7535 41.2258 41.6459C41.0442 41.5383 40.9029 41.3836 40.802 41.1886C40.6944 41.0002 40.6473 40.785 40.6473 40.5429C40.6473 40.3075 40.6944 40.0922 40.802 39.9039C40.9029 39.7156 41.0442 39.5609 41.2258 39.4533C41.4074 39.3456 41.6092 39.2851 41.8378 39.2851C42.0598 39.2851 42.2616 39.3456 42.4432 39.4533C42.6248 39.5609 42.766 39.7156 42.8736 39.9039C42.9813 40.0922 43.0351 40.3075 43.0351 40.5429C43.0351 40.785 42.9813 41.0002 42.8736 41.1886V41.1886Z" fill="white"/>
<path d="M46.789 38.821C46.5603 38.7268 46.298 38.6797 46.0087 38.6797C45.7666 38.6797 45.5447 38.7201 45.3361 38.7941C45.1209 38.8748 44.9528 38.9891 44.825 39.1371C44.6905 39.2918 44.6299 39.4801 44.6299 39.6954C44.6299 40.2402 45.0604 40.5967 45.9213 40.7581C46.2509 40.8253 46.4863 40.8993 46.6275 40.9935C46.7621 41.0877 46.836 41.202 46.836 41.3365C46.836 41.4845 46.7621 41.5988 46.6208 41.6795C46.4796 41.767 46.2845 41.8073 46.0289 41.8073C45.8339 41.8073 45.6523 41.7737 45.4841 41.7064C45.3092 41.6392 45.1815 41.5517 45.1007 41.4576C45.02 41.3769 44.9326 41.3365 44.8452 41.3365C44.7712 41.3365 44.6905 41.3701 44.6097 41.4307C44.5156 41.4979 44.4752 41.5854 44.4752 41.693C44.4752 41.7737 44.5021 41.8477 44.5627 41.9015C44.7106 42.0562 44.9259 42.1773 45.1949 42.2714C45.4639 42.3656 45.7464 42.4127 46.0558 42.4127C46.3585 42.4127 46.6208 42.3656 46.836 42.2714C47.0513 42.1773 47.2194 42.0427 47.3338 41.8746C47.4414 41.7064 47.5019 41.5181 47.5019 41.3096C47.5019 41.0338 47.3943 40.8052 47.1925 40.6303C46.9907 40.4554 46.641 40.3209 46.1567 40.22C45.9146 40.1729 45.733 40.1258 45.6119 40.072C45.4841 40.0182 45.3967 39.9644 45.3563 39.9039C45.3092 39.8433 45.2891 39.7694 45.2891 39.6752C45.2891 39.5541 45.3496 39.4532 45.4841 39.386C45.6186 39.3187 45.7868 39.2784 45.9953 39.2784C46.1702 39.2784 46.3249 39.3053 46.4527 39.3456C46.5737 39.386 46.6948 39.46 46.8091 39.5609C46.9033 39.6483 47.0042 39.6886 47.1253 39.6886C47.1992 39.6886 47.2598 39.6752 47.3136 39.6348C47.3876 39.5743 47.4279 39.507 47.4279 39.4263C47.4279 39.3591 47.3943 39.2851 47.3405 39.2111C47.206 39.0497 47.0176 38.9152 46.789 38.821V38.821Z" fill="white"/>
<path d="M48.5308 38.8008C48.4635 38.868 48.4366 38.9487 48.4366 39.0496V42.0427C48.4366 42.1436 48.4635 42.2243 48.5308 42.2916C48.5981 42.3588 48.6788 42.3857 48.7797 42.3857C48.8806 42.3857 48.9613 42.3588 49.0285 42.2916C49.0891 42.2243 49.1227 42.1436 49.1227 42.0427V39.0496C49.1227 38.9487 49.0891 38.868 49.0285 38.8008C48.9613 38.7402 48.8806 38.7066 48.7797 38.7066C48.6788 38.7066 48.5981 38.7402 48.5308 38.8008Z" fill="white"/>
<path d="M50.5603 38.8412V39.4196V41.0809C50.5603 41.3298 50.6074 41.5518 50.715 41.7468C50.8159 41.9486 50.9572 42.1033 51.1388 42.2176C51.3204 42.332 51.5221 42.3858 51.7441 42.3858H51.8652C51.9795 42.3858 52.0737 42.3589 52.1477 42.2916C52.2217 42.2311 52.262 42.1504 52.262 42.0495C52.262 41.9553 52.2284 41.8746 52.1746 41.8074C52.1208 41.7468 52.0535 41.7132 51.9728 41.7132H51.7441C51.5961 41.7132 51.4751 41.6527 51.3809 41.5316C51.28 41.4105 51.2329 41.2625 51.2329 41.0809V39.4196H51.8046C51.8988 39.4196 51.9728 39.3927 52.0333 39.3389C52.0871 39.2851 52.1208 39.2178 52.1208 39.1371C52.1208 39.0497 52.0871 38.9757 52.0333 38.9219C51.9728 38.8681 51.8988 38.8412 51.8046 38.8412H51.2329V37.8726C51.2329 37.7785 51.1993 37.6978 51.1388 37.6305C51.0715 37.57 50.9908 37.5363 50.8966 37.5363C50.7957 37.5363 50.715 37.57 50.6545 37.6305C50.5872 37.6978 50.5603 37.7785 50.5603 37.8726V38.8412Z" fill="white"/>
<path d="M56.3136 40.7043C56.3674 40.6505 56.4011 40.5765 56.4011 40.489C56.4011 40.1393 56.3338 39.8232 56.1993 39.5474C56.0648 39.2784 55.8697 39.0631 55.6209 38.9084C55.3653 38.7605 55.0693 38.6797 54.7263 38.6797C54.3765 38.6797 54.0604 38.7605 53.7847 38.9219C53.5089 39.0833 53.2937 39.3053 53.139 39.5878C52.9843 39.8703 52.9103 40.1931 52.9103 40.5496C52.9103 40.9128 52.991 41.2289 53.1524 41.5114C53.3138 41.7939 53.5425 42.0158 53.8385 42.1773C54.1277 42.3387 54.4573 42.4127 54.8272 42.4127C55.029 42.4127 55.2442 42.379 55.4729 42.2983C55.7016 42.2243 55.8899 42.1235 56.0446 42.0024C56.1119 41.9486 56.1522 41.8813 56.1522 41.8006C56.1522 41.7199 56.1119 41.6392 56.0311 41.5719C55.9773 41.5316 55.9101 41.5047 55.8294 41.5047C55.7419 41.5047 55.6679 41.5316 55.6074 41.5787C55.5132 41.6526 55.3922 41.7132 55.2442 41.7603C55.0962 41.8141 54.9617 41.8342 54.8272 41.8342C54.4842 41.8342 54.1949 41.7401 53.9595 41.545C53.7241 41.3567 53.5829 41.1011 53.5358 40.785H56.0917C56.1791 40.785 56.2531 40.7581 56.3136 40.7043V40.7043ZM53.9259 39.5272C54.1277 39.3523 54.3967 39.2582 54.7263 39.2582C55.0222 39.2582 55.2577 39.3523 55.446 39.5272C55.6276 39.7088 55.7419 39.951 55.7823 40.2469H53.5425C53.5963 39.951 53.7241 39.7088 53.9259 39.5272Z" fill="white"/>
<path d="M59.3477 38.821C59.119 38.7268 58.8567 38.6797 58.5675 38.6797C58.3253 38.6797 58.1034 38.7201 57.8949 38.7941C57.6796 38.8748 57.5115 38.9891 57.3837 39.1371C57.2492 39.2918 57.1886 39.4801 57.1886 39.6954C57.1886 40.2402 57.6191 40.5967 58.48 40.7581C58.8096 40.8253 59.045 40.8993 59.1863 40.9935C59.3208 41.0877 59.3948 41.202 59.3948 41.3365C59.3948 41.4845 59.3208 41.5988 59.1795 41.6795C59.0383 41.767 58.8432 41.8073 58.5876 41.8073C58.3926 41.8073 58.211 41.7737 58.0428 41.7064C57.868 41.6392 57.7402 41.5517 57.6595 41.4576C57.5787 41.3769 57.4913 41.3365 57.4039 41.3365C57.3299 41.3365 57.2492 41.3701 57.1685 41.4307C57.0743 41.4979 57.0339 41.5854 57.0339 41.693C57.0339 41.7737 57.0608 41.8477 57.1214 41.9015C57.2693 42.0562 57.4846 42.1773 57.7536 42.2714C58.0227 42.3656 58.3051 42.4127 58.6145 42.4127C58.9172 42.4127 59.1795 42.3656 59.3948 42.2714C59.61 42.1773 59.7781 42.0427 59.8925 41.8746C60.0001 41.7064 60.0606 41.5181 60.0606 41.3096C60.0606 41.0338 59.953 40.8052 59.7512 40.6303C59.5495 40.4554 59.1997 40.3209 58.7154 40.22C58.4733 40.1729 58.2917 40.1258 58.1706 40.072C58.0428 40.0182 57.9554 39.9644 57.915 39.9039C57.868 39.8433 57.8478 39.7694 57.8478 39.6752C57.8478 39.5541 57.9083 39.4532 58.0428 39.386C58.1774 39.3187 58.3455 39.2784 58.554 39.2784C58.7289 39.2784 58.8836 39.3053 59.0114 39.3456C59.1324 39.386 59.2535 39.46 59.3679 39.5609C59.462 39.6483 59.5629 39.6886 59.684 39.6886C59.758 39.6886 59.8185 39.6752 59.8723 39.6348C59.9463 39.5743 59.9866 39.507 59.9866 39.4263C59.9866 39.3591 59.953 39.2851 59.8992 39.2111C59.7647 39.0497 59.5764 38.9152 59.3477 38.821V38.821Z" fill="white"/>
<path d="M67.0149 38.7806C66.9678 38.7335 66.9006 38.7066 66.8064 38.7066C66.6315 38.7066 66.5172 38.8142 66.4566 39.016L65.7168 41.3297L65.1115 38.9622C65.0846 38.8882 65.0442 38.8277 64.9904 38.7806C64.9366 38.7335 64.8626 38.7066 64.7819 38.7066C64.6877 38.7066 64.6137 38.7335 64.5599 38.7806C64.5061 38.8277 64.4658 38.8882 64.4456 38.9622L63.7595 41.2827L63.0331 39.016C62.9928 38.9084 62.9457 38.8344 62.8919 38.7806C62.8381 38.7335 62.7641 38.7066 62.6834 38.7066C62.495 38.7066 62.4009 38.8008 62.4009 38.9891C62.4009 39.0564 62.4076 39.1236 62.4278 39.1774L63.4232 42.1638C63.4434 42.231 63.4838 42.2848 63.5443 42.3252C63.6048 42.3655 63.6721 42.3857 63.7461 42.3857C63.8133 42.3857 63.8806 42.3655 63.9411 42.3252C64.0017 42.2848 64.042 42.231 64.0689 42.1638L64.7617 39.7222L65.4208 42.1638C65.4343 42.231 65.4747 42.2848 65.5352 42.3252C65.5957 42.3655 65.663 42.3857 65.7437 42.3857C65.811 42.3857 65.8782 42.3655 65.9387 42.3252C65.9926 42.2848 66.0329 42.231 66.0598 42.1638L67.0553 39.1774C67.0754 39.1236 67.0889 39.0564 67.0889 38.9824C67.0889 38.9017 67.062 38.8344 67.0149 38.7806V38.7806Z" fill="white"/>
<path d="M67.96 38.8008C67.8927 38.868 67.8658 38.9487 67.8658 39.0496V42.0427C67.8658 42.1436 67.8927 42.2243 67.96 42.2916C68.0273 42.3588 68.108 42.3857 68.2089 42.3857C68.3098 42.3857 68.3905 42.3588 68.4577 42.2916C68.5183 42.2243 68.5519 42.1436 68.5519 42.0427V39.0496C68.5519 38.9487 68.5183 38.868 68.4577 38.8008C68.3905 38.7402 68.3098 38.7066 68.2089 38.7066C68.108 38.7066 68.0273 38.7402 67.96 38.8008Z" fill="white"/>
<path d="M69.9895 38.8412V39.4196V41.0809C69.9895 41.3298 70.0366 41.5518 70.1442 41.7468C70.2451 41.9486 70.3863 42.1033 70.5679 42.2176C70.7495 42.332 70.9513 42.3858 71.1733 42.3858H71.2943C71.4087 42.3858 71.5029 42.3589 71.5768 42.2916C71.6508 42.2311 71.6912 42.1504 71.6912 42.0495C71.6912 41.9553 71.6575 41.8746 71.6037 41.8074C71.5499 41.7468 71.4827 41.7132 71.402 41.7132H71.1733C71.0253 41.7132 70.9042 41.6527 70.8101 41.5316C70.7092 41.4105 70.6621 41.2625 70.6621 41.0809V39.4196H71.2338C71.328 39.4196 71.402 39.3927 71.4625 39.3389C71.5163 39.2851 71.5499 39.2178 71.5499 39.1371C71.5499 39.0497 71.5163 38.9757 71.4625 38.9219C71.402 38.8681 71.328 38.8412 71.2338 38.8412H70.6621V37.8726C70.6621 37.7785 70.6285 37.6978 70.5679 37.6305C70.5007 37.57 70.42 37.5363 70.3258 37.5363C70.2249 37.5363 70.1442 37.57 70.0837 37.6305C70.0164 37.6978 69.9895 37.7785 69.9895 37.8726V38.8412Z" fill="white"/>
<path d="M75.1913 38.8748C74.9424 38.7403 74.6666 38.673 74.3572 38.673C74.1286 38.673 73.92 38.7134 73.725 38.7941C73.5232 38.8748 73.3551 38.9824 73.2138 39.1237V37.4758C73.2138 37.3749 73.1802 37.2942 73.1197 37.2269C73.0524 37.1664 72.9717 37.1328 72.8708 37.1328C72.7699 37.1328 72.6892 37.1664 72.6219 37.2269C72.5547 37.2942 72.5278 37.3749 72.5278 37.4758V42.0495C72.5278 42.1504 72.5547 42.2311 72.6219 42.2983C72.6892 42.3656 72.7699 42.3925 72.8708 42.3925C72.9717 42.3925 73.0524 42.3656 73.1197 42.2983C73.1802 42.2311 73.2138 42.1504 73.2138 42.0495V40.1528C73.2138 39.9913 73.2542 39.8501 73.3416 39.7156C73.4291 39.5878 73.5501 39.4869 73.7048 39.4062C73.8595 39.3322 74.0344 39.2918 74.2227 39.2918C74.5456 39.2918 74.8012 39.386 74.9962 39.5743C75.1913 39.7626 75.2922 40.0317 75.2922 40.3949V42.0495C75.2922 42.1504 75.3191 42.2311 75.3863 42.2983C75.4536 42.3656 75.5343 42.3925 75.6352 42.3925C75.7293 42.3925 75.8101 42.3656 75.8773 42.2983C75.9446 42.2311 75.9782 42.1504 75.9782 42.0495V40.3949C75.9782 40.0317 75.9042 39.7223 75.7697 39.4667C75.6285 39.2111 75.4334 39.0093 75.1913 38.8748Z" fill="white"/>
<path d="M82.8022 40.5496C82.8022 40.1998 82.7215 39.8837 82.5601 39.6012C82.3987 39.3187 82.17 39.09 81.8875 38.9286C81.605 38.7672 81.2889 38.6797 80.9458 38.6797H80.9189H80.9055H79.419C79.3249 38.6797 79.2509 38.7134 79.1904 38.7739C79.1231 38.8412 79.0962 38.9152 79.0962 39.0026V40.4352V40.5496V43.6166C79.0962 43.7242 79.1231 43.805 79.1904 43.8655C79.2509 43.9328 79.3316 43.9597 79.4392 43.9597C79.5334 43.9597 79.6141 43.9328 79.6814 43.8655C79.7486 43.805 79.7822 43.7242 79.7822 43.6166V41.8006C79.9369 41.9957 80.1253 42.1436 80.354 42.2513C80.5759 42.3589 80.818 42.4127 81.0804 42.4127C81.4032 42.4127 81.6924 42.332 81.9547 42.1705C82.217 42.0091 82.4256 41.7872 82.5735 41.5047C82.7215 41.2222 82.8022 40.8993 82.8022 40.5496V40.5496ZM82.1431 40.5496C82.1431 40.7917 82.0893 41.0069 81.9816 41.1953C81.874 41.3836 81.7328 41.5383 81.5512 41.6459C81.3696 41.7535 81.1678 41.8073 80.9458 41.8073C80.7172 41.8073 80.5154 41.7535 80.3338 41.6459C80.1522 41.5383 80.0109 41.3836 79.91 41.1953C79.8024 41.0069 79.7553 40.7917 79.7553 40.5496C79.7553 40.3142 79.8024 40.0989 79.91 39.9039C80.0109 39.7156 80.1522 39.5609 80.3338 39.4532C80.5154 39.3456 80.7172 39.2851 80.9458 39.2851C81.1678 39.2851 81.3696 39.3456 81.5512 39.4532C81.7328 39.5609 81.874 39.7156 81.9816 39.9039C82.0893 40.0989 82.1431 40.3142 82.1431 40.5496Z" fill="white"/>
<path d="M87.0404 40.7043C87.0943 40.6505 87.1279 40.5765 87.1279 40.489C87.1279 40.1393 87.0606 39.8232 86.9261 39.5474C86.7916 39.2784 86.5965 39.0631 86.3477 38.9084C86.0921 38.7605 85.7961 38.6797 85.4531 38.6797C85.1034 38.6797 84.7872 38.7605 84.5115 38.9219C84.2357 39.0833 84.0205 39.3053 83.8658 39.5878C83.7111 39.8703 83.6371 40.1931 83.6371 40.5496C83.6371 40.9128 83.7178 41.2289 83.8792 41.5114C84.0406 41.7939 84.2693 42.0158 84.5653 42.1773C84.8545 42.3387 85.1841 42.4127 85.554 42.4127C85.7558 42.4127 85.971 42.379 86.1997 42.2983C86.4284 42.2243 86.6167 42.1235 86.7714 42.0024C86.8387 41.9486 86.879 41.8813 86.879 41.8006C86.879 41.7199 86.8387 41.6392 86.7579 41.5719C86.7041 41.5316 86.6369 41.5047 86.5562 41.5047C86.4687 41.5047 86.3947 41.5316 86.3342 41.5787C86.24 41.6526 86.119 41.7132 85.971 41.7603C85.823 41.8141 85.6885 41.8342 85.554 41.8342C85.211 41.8342 84.9218 41.7401 84.6863 41.545C84.4509 41.3567 84.3097 41.1011 84.2626 40.785H86.8185C86.9059 40.785 86.9799 40.7581 87.0404 40.7043V40.7043ZM84.6527 39.5272C84.8545 39.3523 85.1235 39.2582 85.4531 39.2582C85.7491 39.2582 85.9845 39.3523 86.1728 39.5272C86.3544 39.7088 86.4687 39.951 86.5091 40.2469H84.2693C84.3231 39.951 84.4509 39.7088 84.6527 39.5272Z" fill="white"/>
<path d="M90.3637 38.7739C90.2292 38.7066 90.0408 38.6663 89.8054 38.6663C89.5768 38.6663 89.3682 38.7134 89.1732 38.8008C88.9714 38.895 88.81 39.016 88.6755 39.1707V39.0429C88.6755 38.821 88.5611 38.7066 88.3392 38.7066C88.2315 38.7066 88.1441 38.7403 88.0903 38.7941C88.0298 38.8546 88.0029 38.9353 88.0029 39.0429V42.0495C88.0029 42.1638 88.0298 42.2512 88.0903 42.3051C88.1441 42.3589 88.2315 42.3858 88.3392 42.3858C88.4468 42.3858 88.5342 42.3589 88.588 42.2983C88.6418 42.2445 88.6755 42.1571 88.6755 42.0495V40.0855C88.6755 39.8366 88.7696 39.6348 88.9714 39.4869C89.1665 39.3389 89.4288 39.2649 89.7516 39.2649C89.8592 39.2649 90.0072 39.2851 90.1888 39.312C90.2292 39.3254 90.2628 39.3254 90.2897 39.3254C90.4242 39.3254 90.5184 39.2582 90.5587 39.1102C90.5587 39.0968 90.5655 39.0766 90.5655 39.0429C90.5655 38.9353 90.4982 38.8479 90.3637 38.7739Z" fill="white"/>
<path d="M93.3455 38.821C93.1168 38.7268 92.8545 38.6797 92.5653 38.6797C92.3231 38.6797 92.1012 38.7201 91.8927 38.7941C91.6774 38.8748 91.5093 38.9891 91.3815 39.1371C91.247 39.2918 91.1864 39.4801 91.1864 39.6954C91.1864 40.2402 91.6169 40.5967 92.4778 40.7581C92.8074 40.8253 93.0428 40.8993 93.1841 40.9935C93.3186 41.0877 93.3926 41.202 93.3926 41.3365C93.3926 41.4845 93.3186 41.5988 93.1773 41.6795C93.0361 41.767 92.841 41.8073 92.5854 41.8073C92.3904 41.8073 92.2088 41.7737 92.0406 41.7064C91.8658 41.6392 91.738 41.5517 91.6572 41.4576C91.5765 41.3769 91.4891 41.3365 91.4017 41.3365C91.3277 41.3365 91.247 41.3701 91.1662 41.4307C91.0721 41.4979 91.0317 41.5854 91.0317 41.693C91.0317 41.7737 91.0586 41.8477 91.1192 41.9015C91.2671 42.0562 91.4824 42.1773 91.7514 42.2714C92.0204 42.3656 92.3029 42.4127 92.6123 42.4127C92.915 42.4127 93.1773 42.3656 93.3926 42.2714C93.6078 42.1773 93.7759 42.0427 93.8903 41.8746C93.9979 41.7064 94.0584 41.5181 94.0584 41.3096C94.0584 41.0338 93.9508 40.8052 93.749 40.6303C93.5473 40.4554 93.1975 40.3209 92.7132 40.22C92.4711 40.1729 92.2895 40.1258 92.1684 40.072C92.0406 40.0182 91.9532 39.9644 91.9128 39.9039C91.8658 39.8433 91.8456 39.7694 91.8456 39.6752C91.8456 39.5541 91.9061 39.4532 92.0406 39.386C92.1752 39.3187 92.3433 39.2784 92.5518 39.2784C92.7267 39.2784 92.8814 39.3053 93.0092 39.3456C93.1302 39.386 93.2513 39.46 93.3656 39.5609C93.4598 39.6483 93.5607 39.6886 93.6818 39.6886C93.7558 39.6886 93.8163 39.6752 93.8701 39.6348C93.9441 39.5743 93.9844 39.507 93.9844 39.4263C93.9844 39.3591 93.9508 39.2851 93.897 39.2111C93.7625 39.0497 93.5742 38.9152 93.3455 38.821V38.821Z" fill="white"/>
<path d="M97.5423 38.9219C97.2599 38.7605 96.9437 38.6797 96.594 38.6797C96.2308 38.6797 95.9147 38.7605 95.6322 38.9219C95.3497 39.0833 95.1277 39.2985 94.973 39.581C94.8116 39.8635 94.7376 40.1864 94.7376 40.5496C94.7376 40.9128 94.8116 41.2289 94.973 41.5114C95.1277 41.7939 95.3497 42.0158 95.6322 42.1773C95.9147 42.3387 96.2308 42.4127 96.594 42.4127C96.9505 42.4127 97.2666 42.3387 97.5491 42.1773C97.8316 42.0158 98.0468 41.7939 98.2082 41.5114C98.3629 41.2289 98.4436 40.9128 98.4436 40.5496C98.4436 40.1864 98.3629 39.8635 98.2015 39.581C98.0401 39.2985 97.8248 39.0833 97.5423 38.9219ZM95.9752 39.4465C96.1568 39.3389 96.3653 39.2851 96.594 39.2851C96.8227 39.2851 97.0245 39.3389 97.2061 39.4465C97.3877 39.5541 97.5289 39.7088 97.6298 39.8972C97.7307 40.0922 97.7845 40.3074 97.7845 40.5496C97.7845 40.7917 97.7307 41.0137 97.6298 41.202C97.5289 41.3903 97.3877 41.5383 97.2061 41.6459C97.0245 41.7535 96.8227 41.8073 96.594 41.8073C96.3653 41.8073 96.1568 41.7535 95.9752 41.6459C95.7936 41.5383 95.6523 41.3903 95.5515 41.202C95.4438 41.0137 95.3968 40.7917 95.3968 40.5496C95.3968 40.3074 95.4438 40.0922 95.5515 39.8972C95.6523 39.7088 95.7936 39.5541 95.9752 39.4465Z" fill="white"/>
<path d="M102.713 39.4667C102.572 39.2111 102.377 39.0093 102.135 38.8748C101.899 38.7537 101.644 38.6865 101.361 38.6797C101.354 38.6797 101.341 38.673 101.341 38.673H99.794C99.6999 38.673 99.6259 38.7066 99.5654 38.7672C99.4981 38.8344 99.4712 38.9084 99.4712 38.9959C99.4712 39.0026 99.4712 39.016 99.4712 39.0228C99.4712 39.0362 99.4712 39.0429 99.4712 39.0497V42.0495C99.4712 42.1503 99.4981 42.2311 99.5654 42.2983C99.6326 42.3656 99.7133 42.3925 99.8142 42.3925C99.9151 42.3925 99.9958 42.3656 100.063 42.2983C100.124 42.2311 100.157 42.1503 100.157 42.0495V40.1527C100.157 39.9913 100.198 39.8501 100.285 39.7155C100.372 39.5877 100.494 39.4868 100.648 39.4061C100.803 39.3322 100.978 39.2918 101.166 39.2918C101.489 39.2918 101.745 39.386 101.94 39.5743C102.135 39.7626 102.236 40.0384 102.236 40.3949V42.0495C102.236 42.1503 102.262 42.2311 102.33 42.2983C102.397 42.3656 102.478 42.3925 102.579 42.3925C102.673 42.3925 102.753 42.3656 102.821 42.2983C102.888 42.2311 102.922 42.1503 102.922 42.0495V40.3949C102.922 40.0317 102.848 39.7223 102.713 39.4667Z" fill="white"/>
<path d="M107.574 40.5496C107.574 40.2066 107.486 39.8837 107.325 39.6012C107.163 39.3187 106.941 39.09 106.659 38.9286C106.376 38.7672 106.067 38.6797 105.724 38.6797C105.374 38.6797 105.058 38.7672 104.776 38.9286C104.493 39.09 104.271 39.3187 104.11 39.6012C103.948 39.8837 103.868 40.1998 103.868 40.5496C103.868 40.8993 103.942 41.2222 104.09 41.5047C104.238 41.7872 104.446 42.0091 104.708 42.1705C104.977 42.3387 105.267 42.4194 105.589 42.4194H105.643H107.251C107.338 42.4194 107.412 42.3858 107.479 42.3252C107.54 42.2647 107.574 42.1907 107.574 42.0966V42.0495V40.5496ZM104.681 41.1953C104.574 41.0069 104.527 40.7917 104.527 40.5496C104.527 40.3142 104.574 40.0989 104.681 39.9039C104.789 39.7156 104.93 39.5609 105.112 39.4532C105.294 39.3456 105.495 39.2851 105.724 39.2851C105.946 39.2851 106.148 39.3456 106.329 39.4532C106.511 39.5609 106.652 39.7156 106.76 39.9039C106.861 40.0989 106.914 40.3142 106.914 40.5496C106.914 40.7917 106.861 41.0069 106.76 41.1953C106.652 41.3836 106.511 41.5383 106.329 41.6459C106.148 41.7535 105.946 41.8073 105.724 41.8073C105.495 41.8073 105.294 41.7535 105.112 41.6459C104.93 41.5383 104.789 41.3836 104.681 41.1953Z" fill="white"/>
<path d="M108.561 37.2269C108.494 37.2942 108.467 37.3749 108.467 37.4691V41.1415C108.467 41.3836 108.507 41.5988 108.595 41.7872C108.675 41.9755 108.796 42.1235 108.951 42.2311C109.106 42.3387 109.281 42.3858 109.476 42.3858H109.489C109.624 42.3858 109.731 42.3589 109.819 42.2916C109.899 42.2311 109.946 42.1504 109.946 42.0495C109.946 41.9553 109.913 41.8746 109.859 41.8074C109.805 41.7468 109.731 41.7132 109.644 41.7132H109.476C109.375 41.7132 109.294 41.6594 109.234 41.5518C109.166 41.4441 109.139 41.3096 109.139 41.1415V37.4691C109.139 37.3749 109.106 37.2942 109.045 37.2269C108.978 37.1664 108.897 37.1328 108.803 37.1328C108.702 37.1328 108.621 37.1664 108.561 37.2269V37.2269Z" fill="white"/>
<path d="M110.786 38.8008C110.718 38.868 110.692 38.9487 110.692 39.0496V42.0427C110.692 42.1436 110.718 42.2243 110.786 42.2916C110.853 42.3588 110.934 42.3857 111.035 42.3857C111.135 42.3857 111.216 42.3588 111.283 42.2916C111.344 42.2243 111.378 42.1436 111.378 42.0427V39.0496C111.378 38.9487 111.344 38.868 111.283 38.8008C111.216 38.7402 111.135 38.7066 111.035 38.7066C110.934 38.7066 110.853 38.7402 110.786 38.8008Z" fill="white"/>
<path d="M112.815 38.8412V39.4196V41.0809C112.815 41.3298 112.862 41.5518 112.97 41.7468C113.071 41.9486 113.212 42.1033 113.394 42.2176C113.575 42.332 113.777 42.3858 113.999 42.3858H114.12C114.234 42.3858 114.329 42.3589 114.403 42.2916C114.477 42.2311 114.517 42.1504 114.517 42.0495C114.517 41.9553 114.483 41.8746 114.429 41.8074C114.376 41.7468 114.308 41.7132 114.228 41.7132H113.999C113.851 41.7132 113.73 41.6527 113.636 41.5316C113.535 41.4105 113.488 41.2625 113.488 41.0809V39.4196H114.059C114.154 39.4196 114.228 39.3927 114.288 39.3389C114.342 39.2851 114.376 39.2178 114.376 39.1371C114.376 39.0497 114.342 38.9757 114.288 38.9219C114.228 38.8681 114.154 38.8412 114.059 38.8412H113.488V37.8726C113.488 37.7785 113.454 37.6978 113.394 37.6305C113.326 37.57 113.246 37.5363 113.151 37.5363C113.051 37.5363 112.97 37.57 112.909 37.6305C112.842 37.6978 112.815 37.7785 112.815 37.8726V38.8412Z" fill="white"/>
<path d="M118.373 39.0025C118.373 38.8815 118.299 38.794 118.165 38.7402C118.111 38.7201 118.057 38.7066 118.004 38.7066C117.882 38.7066 117.795 38.7739 117.741 38.9017L116.658 41.3432L115.427 38.8949C115.36 38.7739 115.266 38.7066 115.145 38.7066C115.091 38.7066 115.051 38.7201 115.01 38.7335C114.95 38.7604 114.903 38.8008 114.869 38.8478C114.829 38.9017 114.815 38.9555 114.815 39.0093C114.815 39.0631 114.822 39.1102 114.849 39.1505L116.362 42.0225L115.69 43.5359C115.663 43.5897 115.649 43.6435 115.649 43.6973C115.649 43.8184 115.717 43.9058 115.851 43.9596C115.912 43.9865 115.966 44 116.013 44C116.134 44 116.221 43.9327 116.275 43.7915L118.333 39.164C118.36 39.1034 118.373 39.0496 118.373 39.0025V39.0025Z" fill="white"/>
<path d="M21.1042 13.727C20.6116 12.6104 19.9548 11.6252 19.101 10.7386C18.2143 9.88474 17.2291 9.22795 16.1126 8.73535C14.9632 8.24276 13.7481 8.01288 12.4674 8.01288C11.2195 8.01288 9.97155 8.24276 8.82216 8.73535C7.70561 9.22795 6.72043 9.88474 5.83376 10.7386C4.97993 11.5924 4.32312 12.6104 3.83053 13.727C3.37077 14.8764 3.10806 16.0914 3.10806 17.3722V31.3291L8.03401 32.971V25.615C8.29673 25.7463 8.55944 25.8777 8.82216 25.9762C9.97155 26.4688 11.2195 26.7315 12.4674 26.7315C13.7153 26.7315 14.9632 26.4688 16.1126 25.9762C17.2291 25.5164 18.2143 24.8596 19.101 23.973C19.9548 23.1191 20.6116 22.1339 21.1042 21.0174C21.5968 19.868 21.8267 18.6201 21.8267 17.3722C21.8267 16.0914 21.5968 14.8764 21.1042 13.727ZM12.4674 21.8055C10.0372 21.8055 8.03401 19.8023 8.03401 17.3722C8.03401 14.9421 10.0372 12.9388 12.4674 12.9388C14.8975 12.9388 16.9007 14.9421 16.9007 17.3722C16.9007 19.8023 14.8975 21.8055 12.4674 21.8055V21.8055Z" fill="white"/>
<path d="M28.3054 26.4688V18.3902C28.3054 15.2376 30.8669 12.6433 34.0523 12.6433V7.71732C32.6074 7.71732 31.1953 8.01287 29.8817 8.57115C28.6338 9.09658 27.4844 9.88473 26.4992 10.8699C25.514 11.8223 24.7587 12.9717 24.2004 14.2524C23.6422 15.566 23.3794 16.9453 23.3794 18.3902V26.4688H28.3054Z" fill="white"/>
<path d="M36.5979 32.9711H41.8194L51.8027 8.17709H46.5483L42.4105 18.5544L38.01 8.17709H32.5915L39.9147 24.7283L36.5979 32.9711Z" fill="white"/>
<path d="M62.7511 12.7746V8.17707H57.5296V2.29877L52.6036 3.94075V16.6826C52.6036 18.0618 52.8664 19.3754 53.3918 20.6233C53.8844 21.8384 54.6397 22.9221 55.5592 23.8416C56.4787 24.794 57.5624 25.5164 58.7775 26.0419C60.0254 26.5673 61.3718 26.83 62.7511 26.83V21.9041C59.8612 21.9041 57.5296 19.5724 57.5296 16.6826V12.7746H62.7511Z" fill="white"/>
<path d="M71.1216 26.6002C72.4024 26.6002 73.6503 26.3374 74.8325 25.812C75.9819 25.3194 76.9999 24.5969 77.8538 23.7103L74.3728 20.4263C73.5189 21.3458 72.3695 21.8384 71.1216 21.8384C69.5125 21.8384 68.1004 20.9846 67.3122 19.7367H80.3496V17.3394C80.3496 14.8764 79.3972 12.5448 77.6567 10.8043C75.9162 9.06377 73.5846 8.07858 71.1216 8.07858C68.6258 8.07858 66.327 9.06377 64.5537 10.8043C62.8132 12.5448 61.8608 14.8764 61.8608 17.3394C61.8608 19.8024 62.8132 22.134 64.5537 23.8745C66.327 25.615 68.6258 26.6002 71.1216 26.6002V26.6002ZM67.3122 14.9749C68.1004 13.6942 69.5125 12.8403 71.1216 12.8403C72.6979 12.8403 74.11 13.6942 74.931 14.9749H67.3122Z" fill="white"/>
<path d="M89.8644 26.7315C92.9185 26.7315 95.8084 25.2209 97.5817 22.6594L93.5096 19.868C92.6886 21.0831 91.3093 21.8055 89.8644 21.8055C87.4014 21.8055 85.431 19.8023 85.431 17.3722C85.431 14.9092 87.4014 12.9388 89.8644 12.9388C91.2765 12.9388 92.6558 13.6285 93.4767 14.8107L97.516 11.9865C96.6622 10.7714 95.5128 9.78622 94.2321 9.09659C92.8856 8.37411 91.375 8.01288 89.8644 8.01288C88.5836 8.01288 87.3686 8.24276 86.2192 8.73535C85.1026 9.22795 84.0846 9.88474 83.2308 10.7386C82.3769 11.6252 81.6873 12.6104 81.2275 13.727C80.7349 14.8764 80.5051 16.1243 80.5051 17.3722C80.5051 18.6201 80.7349 19.868 81.2275 21.0174C81.6873 22.1339 82.3769 23.1191 83.2308 24.0058C84.0846 24.8596 85.1026 25.5164 86.2192 26.009C87.3686 26.4688 88.5836 26.7315 89.8644 26.7315V26.7315Z" fill="white"/>
<path d="M112.802 10.7386C111.226 9.16227 109.157 8.30844 106.924 8.30844C105.742 8.30844 104.592 8.53832 103.542 9.03091V0L98.6156 1.64199V15.8944C98.5828 16.1571 98.5828 16.387 98.5828 16.6497H98.6156V26.4688H103.542V16.1571C103.771 14.5151 105.184 13.2344 106.924 13.2344C108.796 13.2344 110.339 14.745 110.339 16.6497V26.4688H115.265V16.6497C115.265 14.4166 114.379 12.3149 112.802 10.7386V10.7386Z" fill="white"/>
</svg>
